<?xml version="1.0" encoding="UTF-8" standalone="no"?>
<!-- Created with Inkscape (http://www.inkscape.org/) -->

<svg
   xmlns:dc="http://purl.org/dc/elements/1.1/"
   xmlns:cc="http://creativecommons.org/ns#"
   xmlns:rdf="http://www.w3.org/1999/02/22-rdf-syntax-ns#"
   xmlns:svg="http://www.w3.org/2000/svg"
   xmlns="http://www.w3.org/2000/svg"
   xmlns:sodipodi="http://sodipodi.sourceforge.net/DTD/sodipodi-0.dtd"
   xmlns:inkscape="http://www.inkscape.org/namespaces/inkscape"
   id="svg3349"
   version="1.1"
   inkscape:version="0.48.2 r9819"
   width="652.5"
   height="86.25"
   xml:space="preserve"
   sodipodi:docname="Ausaddieren.svg"><metadata
     id="metadata3355"><rdf:RDF><cc:Work
         rdf:about=""><dc:format>image/svg+xml</dc:format><dc:type
           rdf:resource="http://purl.org/dc/dcmitype/StillImage" /><dc:title></dc:title></cc:Work></rdf:RDF></metadata><defs
     id="defs3353"><clipPath
       clipPathUnits="userSpaceOnUse"
       id="clipPath3365"><path
         d="M 0.9960939,1 520.996,1 l 0,67 -519.9999061,0 0,-67 z"
         id="path3367" /></clipPath><clipPath
       clipPathUnits="userSpaceOnUse"
       id="clipPath3371"><path
         d="M 0,0 522,0 522,69 0,69 0,0 z"
         id="path3373" /></clipPath></defs><sodipodi:namedview
     pagecolor="#ffffff"
     bordercolor="#666666"
     borderopacity="1"
     objecttolerance="10"
     gridtolerance="10"
     guidetolerance="10"
     inkscape:pageopacity="0"
     inkscape:pageshadow="2"
     inkscape:window-width="1920"
     inkscape:window-height="1178"
     id="namedview3351"
     showgrid="false"
     inkscape:zoom="1.7410678"
     inkscape:cx="258.61171"
     inkscape:cy="5.5607964"
     inkscape:window-x="0"
     inkscape:window-y="0"
     inkscape:window-maximized="1"
     inkscape:current-layer="layer2" /><g
     id="g3357"
     inkscape:groupmode="layer"
     inkscape:label="Ausaddieren"
     transform="matrix(1.25,0,0,-1.25,0,86.25)"
     style="display:inline"><g
       id="g3359" /><g
       id="g3361"
       transform="translate(-17.516778,149.47651)"><g
         id="g3363"
         clip-path="url(#clipPath3365)"><g
           id="g3369"
           clip-path="url(#clipPath3371)"><path
             d="m 12.5809,37.266 3.0882,0 c 0.7188,0 1.0778,0 1.0778,0.7192 0,0.3949 -0.359,0.3949 -0.9699,0.3949 l -2.9809,0 0.7551,4.0937 c 0.1437,0.7551 0.6468,3.3032 0.8629,3.73401 0.323,0.68319 0.9328,1.22229 1.6879,1.22229 0.1441,0 1.0781,0 1.7589,-0.6473 -1.58,-0.1437 -1.939,-1.4 -1.939,-1.9387 0,-0.8269 0.6472,-1.2582 1.3301,-1.2582 0.9332,0 1.975,0.7911 1.975,2.1563 0,1.6519 -1.6532,2.4769 -3.125,2.4769 -1.22,0 -3.4829,-0.6453 -4.561,-4.2019 -0.216,-0.7531 -0.323,-1.1121 -1.1859,-5.6371 l -2.47815,0 c -0.68086,0 -1.07695,0 -1.07695,-0.6832 0,-0.4309 0.32305,-0.4309 1.00586,-0.4309 l 2.37034,0 -2.69417,-14.1859 c -0.64687,-3.484 -1.2582,-6.752 -3.125,-6.752 -0.14414,0 -1.04219,0 -1.72305,0.6449 1.65196,0.1079 1.975,1.402 1.975,1.9411 0,0.825 -0.64687,1.2558 -1.33007,1.2558 -0.93282,0 -1.975,-0.791 -1.975,-2.1551 0,-1.616 1.58125,-2.4777 3.05312,-2.4777 1.975,0 3.41289,2.1188 4.05781,3.484 1.15,2.2629 1.97496,6.6078 2.01136,6.859 l 2.1558,11.384"
             style="fill:#000000;fill-opacity:1;fill-rule:nonzero;stroke:none"
             id="path3375"
             inkscape:connector-curvature="0" /><path
             d="m 55.473,34.6441 c 0.5391,0 1.22,0 1.22,0.7188 0,0.7191 -0.6809,0.7191 -1.184,0.7191 l -21.5121,0 c -0.5028,0 -1.186,0 -1.186,-0.7191 0,-0.7188 0.6832,-0.7188 1.2219,-0.7188 l 21.441,0 -8e-4,0 z m 0.036,-6.9671 c 0.5031,0 1.184,0 1.184,0.7191 0,0.7168 -0.6809,0.7168 -1.22,0.7168 l -21.441,0 c -0.539,0 -1.2218,0 -1.2218,-0.7168 0,-0.7191 0.6828,-0.7191 1.18591,-0.7191 l 21.51289,0"
             style="fill:#000000;fill-opacity:1;fill-rule:nonzero;stroke:none"
             id="path3377"
             inkscape:connector-curvature="0" /><g
             id="g3379"
             transform="scale(0.1,0.1)"><path
               d="m 686.5,498.488 433.48,0"
               style="fill:none;stroke:#000000;stroke-width:14.32800007;stroke-linecap:butt;stroke-linejoin:miter;stroke-miterlimit:10;stroke-opacity:1;stroke-dasharray:none"
               id="path3381"
               inkscape:connector-curvature="0" /></g><g
             id="g3383"
             transform="scale(0.1,0.1)"><path
               d="m 693.66,121.68 0,369.609"
               style="fill:none;stroke:#000000;stroke-width:14.32800007;stroke-linecap:butt;stroke-linejoin:miter;stroke-miterlimit:10;stroke-opacity:1;stroke-dasharray:none"
               id="path3385"
               inkscape:connector-curvature="0" /></g><path
             d="m 94.19491,36.475 c -0.64491,1.3301 -1.68711,2.298 -3.30271,2.298 -4.20239,0 -8.6563,-5.2781 -8.6563,-10.5218 0,-3.3774 1.97701,-5.7473 4.777,-5.7473 0.7191,0 2.5141,0.1441 4.6691,2.6941 0.2879,-1.5082 1.545,-2.6941 3.2692,-2.6941 1.2578,0 2.0828,0.827 2.6578,1.975 0.6109,1.2941 1.0781,3.484 1.0781,3.5563 0,0.3589 -0.32299,0.3589 -0.43119,0.3589 -0.35901,0 -0.395,-0.1441 -0.5028,-0.6472 -0.61091,-2.334 -1.25821,-4.4528 -2.73011,-4.4528 -0.96989,0 -1.07689,0.9329 -1.07689,1.652 0,0.791 0.07189,1.0777 0.46599,2.6578 0.3949,1.5082 0.46681,1.8672 0.79101,3.2332 l 1.29179,5.0277 c 0.25201,1.0051 0.25201,1.0774 0.25201,1.2204 0,0.6109 -0.4297,0.9699 -1.04101,0.9699 -0.86179,0 -1.40199,-0.791 -1.50899,-1.5813 l -0.002,0.0012 z m -2.334,-9.302 C 91.6809,26.5262 91.6809,26.4559 91.1441,25.8449 c -1.5812,-1.975 -3.0531,-2.55 -4.05889,-2.55 -1.79541,0 -2.29811,1.975 -2.29811,3.375 0,1.7973 1.15,6.2141 1.97701,7.866 1.11289,2.1192 2.7281,3.4481 4.166,3.4481 2.334,0 2.83789,-2.9449 2.83789,-3.161 0,-0.216 -0.07189,-0.4308 -0.10779,-0.6109 l -1.7973,-7.0391"
             style="fill:#000000;fill-opacity:1;fill-rule:nonzero;stroke:none"
             id="path3387"
             inkscape:connector-curvature="0" /><g
             id="g3389"
             transform="scale(0.1,0.1)"><path
               d="m 1112.78,121.68 0,369.609"
               style="fill:none;stroke:#000000;stroke-width:14.32800007;stroke-linecap:butt;stroke-linejoin:miter;stroke-miterlimit:10;stroke-opacity:1;stroke-dasharray:none"
               id="path3391"
               inkscape:connector-curvature="0" /></g><g
             id="g3393"
             transform="scale(0.1,0.1)"><path
               d="m 686.5,114.512 433.48,0"
               style="fill:none;stroke:#000000;stroke-width:14.32800007;stroke-linecap:butt;stroke-linejoin:miter;stroke-miterlimit:10;stroke-opacity:1;stroke-dasharray:none"
               id="path3395"
               inkscape:connector-curvature="0" /></g><path
             d="m 126.895,31.8781 c 0,1.0418 -0.862,1.9028 -1.903,1.9028 -1.042,0 -1.903,-0.861 -1.903,-1.9028 0,-1.041 0.861,-1.9031 1.903,-1.9031 1.041,0 1.903,0.8629 1.903,1.9031"
             style="fill:#000000;fill-opacity:1;fill-rule:nonzero;stroke:none"
             id="path3397"
             inkscape:connector-curvature="0" /><g
             id="g3399"
             transform="scale(0.1,0.1)"><path
               d="m 1379,613.039 1270.33,0"
               style="fill:none;stroke:#000000;stroke-width:14.32800007;stroke-linecap:butt;stroke-linejoin:miter;stroke-miterlimit:10;stroke-opacity:1;stroke-dasharray:none"
               id="path3401"
               inkscape:connector-curvature="0" /></g><g
             id="g3403"
             transform="scale(0.1,0.1)"><path
               d="m 1386.16,32.0391 0,573.8399"
               style="fill:none;stroke:#000000;stroke-width:14.32800007;stroke-linecap:butt;stroke-linejoin:miter;stroke-miterlimit:10;stroke-opacity:1;stroke-dasharray:none"
               id="path3405"
               inkscape:connector-curvature="0" /></g><path
             d="m 161.988,14.2809 c 0,0.1082 0,0.18 -0.611,0.789 -4.489,4.525 -5.637,11.3141 -5.637,16.8082 0,6.25 1.364,12.4981 5.781,16.9879 0.467,0.4309 0.467,0.5031 0.467,0.611 0,0.2519 -0.144,0.3589 -0.359,0.3589 -0.359,0 -3.591,-2.4418 -5.709,-7.00309 -1.833,-3.95191 -2.262,-7.93671 -2.262,-10.95471 0,-2.8019 0.394,-7.1472 2.37,-11.2051 2.155,-4.4171 5.242,-6.7519 5.602,-6.7519 0.216,0 0.359,0.1078 0.359,0.359"
             style="fill:#000000;fill-opacity:1;fill-rule:nonzero;stroke:none"
             id="path3407"
             inkscape:connector-curvature="0" /><path
             d="m 172.583,47.4301 c 0,0.0359 0,0.3949 -0.466,0.3949 -0.827,0 -3.448,-0.2871 -4.383,-0.359 -0.286,-0.0359 -0.681,-0.0719 -0.681,-0.7191 0,-0.4309 0.323,-0.4309 0.861,-0.4309 1.725,0 1.797,-0.2519 1.797,-0.609 0,-0.2519 -0.323,-1.473 -0.503,-2.2281 l -2.945,-11.7078 c -0.431,-1.7949 -0.575,-2.3699 -0.575,-3.627 0,-3.4121 1.905,-5.639 4.561,-5.639 4.239,0 8.656,5.3519 8.656,10.523 0,3.2668 -1.903,5.7449 -4.777,5.7449 -1.653,0 -3.125,-1.041 -4.202,-2.155 l 2.656,10.81091 0.001,0.0012 z m -3.375,-13.577 c 0.216,0.791 0.216,0.8629 0.539,1.2578 1.759,2.334 3.375,2.8731 4.309,2.8731 1.292,0 2.263,-1.0781 2.263,-3.377 0,-2.1191 -1.186,-6.248 -1.831,-7.614 -1.186,-2.4059 -2.837,-3.6981 -4.239,-3.6981 -1.22,0 -2.406,0.9692 -2.406,3.627 0,0.6832 0,1.366 0.575,3.6281 l 0.791,3.3031"
             style="fill:#000000;fill-opacity:1;fill-rule:nonzero;stroke:none"
             id="path3409"
             inkscape:connector-curvature="0" /><path
             d="m 202.089,31.1609 10.02,0 c 0.503,0 1.184,0 1.184,0.7172 0,0.7188 -0.681,0.7188 -1.184,0.7188 l -10.02,0 0,10.0562 c 0,0.5028 0,1.184 -0.719,1.184 -0.719,0 -0.719,-0.6812 -0.719,-1.184 l 0,-10.0562 -10.055,0 c -0.503,0 -1.186,0 -1.186,-0.7188 0,-0.7172 0.683,-0.7172 1.186,-0.7172 l 10.055,0 0,-10.0558 c 0,-0.5031 0,-1.186 0.719,-1.186 0.719,0 0.719,0.6829 0.719,1.186 l 0,10.0558"
             style="fill:#000000;fill-opacity:1;fill-rule:nonzero;stroke:none"
             id="path3411"
             inkscape:connector-curvature="0" /><path
             d="m 237.522,36.5469 c -0.575,0 -1.077,0 -1.58,-0.502 -0.575,-0.539 -0.647,-1.15 -0.647,-1.4019 0,-0.8621 0.647,-1.2559 1.328,-1.2559 1.042,0 2.013,0.8609 2.013,2.2981 0,1.7589 -1.689,3.0878 -4.239,3.0878 -4.848,0 -9.625,-5.1339 -9.625,-10.198 0,-3.2328 2.084,-6.0699 5.819,-6.0699 5.136,0 8.153,3.8078 8.153,4.2379 0,0.216 -0.216,0.4672 -0.431,0.4672 -0.18,0 -0.252,-0.0723 -0.467,-0.359 -2.837,-3.5551 -6.752,-3.5551 -7.183,-3.5551 -2.262,0 -3.233,1.759 -3.233,3.9141 0,1.4726 0.719,4.9558 1.939,7.1828 1.114,2.0468 3.089,3.5922 5.064,3.5922 1.222,0 2.586,-0.4672 3.089,-1.4372"
             style="fill:#000000;fill-opacity:1;fill-rule:nonzero;stroke:none"
             id="path3413"
             inkscape:connector-curvature="0" /><path
             d="m 249.18,31.8781 c 0,2.802 -0.395,7.1469 -2.37,11.2059 -2.155,4.4172 -5.244,6.7519 -5.603,6.7519 -0.216,0 -0.359,-0.1437 -0.359,-0.3589 0,-0.1079 0,-0.1801 0.683,-0.827 3.519,-3.55509 5.567,-9.266 5.567,-16.7719 0,-6.141 -1.33,-12.4621 -5.783,-16.9871 -0.467,-0.4301 -0.467,-0.5019 -0.467,-0.609 0,-0.216 0.144,-0.359 0.359,-0.359 0.359,0 3.592,2.4418 5.711,7.0032 1.831,3.95 2.263,7.9379 2.263,10.9527"
             style="fill:#000000;fill-opacity:1;fill-rule:nonzero;stroke:none"
             id="path3415"
             inkscape:connector-curvature="0" /><g
             id="g3417"
             transform="scale(0.1,0.1)"><path
               d="m 2642.13,32.0391 0,573.8399"
               style="fill:none;stroke:#000000;stroke-width:14.32800007;stroke-linecap:butt;stroke-linejoin:miter;stroke-miterlimit:10;stroke-opacity:1;stroke-dasharray:none"
               id="path3419"
               inkscape:connector-curvature="0" /></g><g
             id="g3421"
             transform="scale(0.1,0.1)"><path
               d="m 1379,24.8711 1270.33,0"
               style="fill:none;stroke:#000000;stroke-width:14.32800007;stroke-linecap:butt;stroke-linejoin:miter;stroke-miterlimit:10;stroke-opacity:1;stroke-dasharray:none"
               id="path3423"
               inkscape:connector-curvature="0" /></g><path
             d="m 287.589,31.1609 10.02,0 c 0.503,0 1.184,0 1.184,0.7172 0,0.7188 -0.681,0.7188 -1.184,0.7188 l -10.02,0 0,10.0562 c 0,0.5028 0,1.184 -0.719,1.184 -0.719,0 -0.719,-0.6812 -0.719,-1.184 l 0,-10.0562 -10.055,0 c -0.503,0 -1.186,0 -1.186,-0.7188 0,-0.7172 0.683,-0.7172 1.186,-0.7172 l 10.055,0 0,-10.0558 c 0,-0.5031 0,-1.186 0.719,-1.186 0.719,0 0.719,0.6829 0.719,1.186 l 0,10.0558"
             style="fill:#000000;fill-opacity:1;fill-rule:nonzero;stroke:none"
             id="path3425"
             inkscape:connector-curvature="0" /><g
             id="g3427"
             transform="scale(0.1,0.1)"><path
               d="m 3087.66,498.488 399.1,0"
               style="fill:none;stroke:#000000;stroke-width:14.32800007;stroke-linecap:butt;stroke-linejoin:miter;stroke-miterlimit:10;stroke-opacity:1;stroke-dasharray:none"
               id="path3429"
               inkscape:connector-curvature="0" /></g><g
             id="g3431"
             transform="scale(0.1,0.1)"><path
               d="m 3094.83,121.68 0,369.609"
               style="fill:none;stroke:#000000;stroke-width:14.32800007;stroke-linecap:butt;stroke-linejoin:miter;stroke-miterlimit:10;stroke-opacity:1;stroke-dasharray:none"
               id="path3433"
               inkscape:connector-curvature="0" /></g><path
             d="m 335.222,36.5469 c -0.575,0 -1.077,0 -1.58,-0.502 -0.575,-0.539 -0.647,-1.15 -0.647,-1.4019 0,-0.8621 0.647,-1.2559 1.328,-1.2559 1.042,0 2.013,0.8609 2.013,2.2981 0,1.7589 -1.689,3.0878 -4.239,3.0878 -4.848,0 -9.625,-5.1339 -9.625,-10.198 0,-3.2328 2.084,-6.0699 5.819,-6.0699 5.136,0 8.153,3.8078 8.153,4.2379 0,0.216 -0.216,0.4672 -0.431,0.4672 -0.18,0 -0.252,-0.0723 -0.467,-0.359 -2.837,-3.5551 -6.752,-3.5551 -7.183,-3.5551 -2.262,0 -3.233,1.759 -3.233,3.9141 0,1.4726 0.719,4.9558 1.939,7.1828 1.114,2.0468 3.089,3.5922 5.064,3.5922 1.222,0 2.586,-0.4672 3.089,-1.4372"
             style="fill:#000000;fill-opacity:1;fill-rule:nonzero;stroke:none"
             id="path3435"
             inkscape:connector-curvature="0" /><g
             id="g3437"
             transform="scale(0.1,0.1)"><path
               d="m 3479.59,121.68 0,369.609"
               style="fill:none;stroke:#000000;stroke-width:14.32800007;stroke-linecap:butt;stroke-linejoin:miter;stroke-miterlimit:10;stroke-opacity:1;stroke-dasharray:none"
               id="path3439"
               inkscape:connector-curvature="0" /></g><g
             id="g3441"
             transform="scale(0.1,0.1)"><path
               d="m 3087.66,114.512 399.1,0"
               style="fill:none;stroke:#000000;stroke-width:14.32800007;stroke-linecap:butt;stroke-linejoin:miter;stroke-miterlimit:10;stroke-opacity:1;stroke-dasharray:none"
               id="path3443"
               inkscape:connector-curvature="0" /></g><path
             d="m 363.495,31.8781 c 0,1.0418 -0.862,1.9028 -1.903,1.9028 -1.042,0 -1.903,-0.861 -1.903,-1.9028 0,-1.041 0.861,-1.9031 1.903,-1.9031 1.041,0 1.903,0.8629 1.903,1.9031"
             style="fill:#000000;fill-opacity:1;fill-rule:nonzero;stroke:none"
             id="path3445"
             inkscape:connector-curvature="0" /><g
             id="g3447"
             transform="scale(0.1,0.1)"><path
               d="m 3745.78,664.84 1459.91,0"
               style="fill:none;stroke:#000000;stroke-width:14.32800007;stroke-linecap:butt;stroke-linejoin:miter;stroke-miterlimit:10;stroke-opacity:1;stroke-dasharray:none"
               id="path3449"
               inkscape:connector-curvature="0" /></g><g
             id="g3451"
             transform="scale(0.1,0.1)"><path
               d="m 3752.95,32.0391 0,625.6409"
               style="fill:none;stroke:#000000;stroke-width:14.32800007;stroke-linecap:butt;stroke-linejoin:miter;stroke-miterlimit:10;stroke-opacity:1;stroke-dasharray:none"
               id="path3453"
               inkscape:connector-curvature="0" /></g><path
             d="m 398.688,14.2809 c 0,0.1082 0,0.18 -0.611,0.789 -4.489,4.525 -5.637,11.3141 -5.637,16.8082 0,6.25 1.364,12.4981 5.781,16.9879 0.467,0.4309 0.467,0.5031 0.467,0.611 0,0.2519 -0.144,0.3589 -0.359,0.3589 -0.359,0 -3.591,-2.4418 -5.709,-7.00309 -1.833,-3.95191 -2.262,-7.93671 -2.262,-10.95471 0,-2.8019 0.394,-7.1472 2.37,-11.2051 2.155,-4.4171 5.242,-6.7519 5.602,-6.7519 0.216,0 0.359,0.1078 0.359,0.359"
             style="fill:#000000;fill-opacity:1;fill-rule:nonzero;stroke:none"
             id="path3455"
             inkscape:connector-curvature="0" /><path
             d="m 414.095,36.475 c -0.645,1.3301 -1.687,2.298 -3.303,2.298 -4.202,0 -8.656,-5.2781 -8.656,-10.5218 0,-3.3774 1.977,-5.7473 4.777,-5.7473 0.719,0 2.514,0.1441 4.669,2.6941 0.288,-1.5082 1.545,-2.6941 3.269,-2.6941 1.258,0 2.083,0.827 2.658,1.975 0.611,1.2941 1.078,3.484 1.078,3.5563 0,0.3589 -0.323,0.3589 -0.431,0.3589 -0.359,0 -0.395,-0.1441 -0.503,-0.6472 -0.611,-2.334 -1.258,-4.4528 -2.73,-4.4528 -0.97,0 -1.077,0.9329 -1.077,1.652 0,0.791 0.072,1.0777 0.466,2.6578 0.395,1.5082 0.467,1.8672 0.791,3.2332 l 1.292,5.0277 c 0.252,1.0051 0.252,1.0774 0.252,1.2204 0,0.6109 -0.43,0.9699 -1.041,0.9699 -0.862,0 -1.402,-0.791 -1.509,-1.5813 l -0.002,0.0012 z m -2.334,-9.302 c -0.18,-0.6468 -0.18,-0.7171 -0.717,-1.3281 -1.581,-1.975 -3.053,-2.55 -4.059,-2.55 -1.795,0 -2.298,1.975 -2.298,3.375 0,1.7973 1.15,6.2141 1.977,7.866 1.113,2.1192 2.728,3.4481 4.166,3.4481 2.334,0 2.838,-2.9449 2.838,-3.161 0,-0.216 -0.072,-0.4308 -0.108,-0.6109 l -1.797,-7.0391"
             style="fill:#000000;fill-opacity:1;fill-rule:nonzero;stroke:none"
             id="path3457"
             inkscape:connector-curvature="0" /><path
             d="m 442.289,31.1609 10.02,0 c 0.503,0 1.184,0 1.184,0.7172 0,0.7188 -0.681,0.7188 -1.184,0.7188 l -10.02,0 0,10.0562 c 0,0.5028 0,1.184 -0.719,1.184 -0.719,0 -0.719,-0.6812 -0.719,-1.184 l 0,-10.0562 -10.055,0 c -0.503,0 -1.186,0 -1.186,-0.7188 0,-0.7172 0.683,-0.7172 1.186,-0.7172 l 10.055,0 0,-10.0558 c 0,-0.5031 0,-1.186 0.719,-1.186 0.719,0 0.719,0.6829 0.719,1.186 l 0,10.0558"
             style="fill:#000000;fill-opacity:1;fill-rule:nonzero;stroke:none"
             id="path3459"
             inkscape:connector-curvature="0" /><g
             id="g3461"
             transform="scale(0.1,0.1)"><path
               d="m 4635.16,528.551 153.94,0"
               style="fill:none;stroke:#000000;stroke-width:14.32800007;stroke-linecap:butt;stroke-linejoin:miter;stroke-miterlimit:10;stroke-opacity:1;stroke-dasharray:none"
               id="path3463"
               inkscape:connector-curvature="0" /></g><path
             d="m 472.083,47.4301 c 0,0.0359 0,0.3949 -0.466,0.3949 -0.827,0 -3.448,-0.2871 -4.383,-0.359 -0.286,-0.0359 -0.681,-0.0719 -0.681,-0.7191 0,-0.4309 0.323,-0.4309 0.861,-0.4309 1.725,0 1.797,-0.2519 1.797,-0.609 0,-0.2519 -0.323,-1.473 -0.503,-2.2281 l -2.945,-11.7078 c -0.431,-1.7949 -0.575,-2.3699 -0.575,-3.627 0,-3.4121 1.905,-5.639 4.561,-5.639 4.239,0 8.656,5.3519 8.656,10.523 0,3.2668 -1.903,5.7449 -4.777,5.7449 -1.653,0 -3.125,-1.041 -4.202,-2.155 l 2.656,10.81091 0.001,0.0012 z m -3.375,-13.577 c 0.216,0.791 0.216,0.8629 0.539,1.2578 1.759,2.334 3.375,2.8731 4.309,2.8731 1.292,0 2.263,-1.0781 2.263,-3.377 0,-2.1191 -1.186,-6.248 -1.831,-7.614 -1.186,-2.4059 -2.837,-3.6981 -4.239,-3.6981 -1.22,0 -2.406,0.9692 -2.406,3.627 0,0.6832 0,1.366 0.575,3.6281 l 0.791,3.3031"
             style="fill:#000000;fill-opacity:1;fill-rule:nonzero;stroke:none"
             id="path3465"
             inkscape:connector-curvature="0" /><path
             d="m 493.122,36.5469 c -0.575,0 -1.077,0 -1.58,-0.502 -0.575,-0.539 -0.647,-1.15 -0.647,-1.4019 0,-0.8621 0.647,-1.2559 1.328,-1.2559 1.042,0 2.013,0.8609 2.013,2.2981 0,1.7589 -1.689,3.0878 -4.239,3.0878 -4.848,0 -9.625,-5.1339 -9.625,-10.198 0,-3.2328 2.084,-6.0699 5.819,-6.0699 5.136,0 8.153,3.8078 8.153,4.2379 0,0.216 -0.216,0.4672 -0.431,0.4672 -0.18,0 -0.252,-0.0723 -0.467,-0.359 -2.837,-3.5551 -6.752,-3.5551 -7.183,-3.5551 -2.262,0 -3.233,1.759 -3.233,3.9141 0,1.4726 0.719,4.9558 1.939,7.1828 1.114,2.0468 3.089,3.5922 5.064,3.5922 1.222,0 2.586,-0.4672 3.089,-1.4372"
             style="fill:#000000;fill-opacity:1;fill-rule:nonzero;stroke:none"
             id="path3467"
             inkscape:connector-curvature="0" /><path
             d="m 504.78,31.8781 c 0,2.802 -0.395,7.1469 -2.37,11.2059 -2.155,4.4172 -5.244,6.7519 -5.603,6.7519 -0.216,0 -0.359,-0.1437 -0.359,-0.3589 0,-0.1079 0,-0.1801 0.683,-0.827 3.519,-3.55509 5.567,-9.266 5.567,-16.7719 0,-6.141 -1.33,-12.4621 -5.783,-16.9871 -0.467,-0.4301 -0.467,-0.5019 -0.467,-0.609 0,-0.216 0.144,-0.359 0.359,-0.359 0.359,0 3.592,2.4418 5.711,7.0032 1.831,3.95 2.263,7.9379 2.263,10.9527"
             style="fill:#000000;fill-opacity:1;fill-rule:nonzero;stroke:none"
             id="path3469"
             inkscape:connector-curvature="0" /><g
             id="g3471"
             transform="scale(0.1,0.1)"><path
               d="m 5198.52,32.0391 0,625.6409"
               style="fill:none;stroke:#000000;stroke-width:14.32800007;stroke-linecap:butt;stroke-linejoin:miter;stroke-miterlimit:10;stroke-opacity:1;stroke-dasharray:none"
               id="path3473"
               inkscape:connector-curvature="0" /></g><g
             id="g3475"
             transform="scale(0.1,0.1)"><path
               d="m 3745.78,24.8711 1459.91,0"
               style="fill:none;stroke:#000000;stroke-width:14.32800007;stroke-linecap:butt;stroke-linejoin:miter;stroke-miterlimit:10;stroke-opacity:1;stroke-dasharray:none"
               id="path3477"
               inkscape:connector-curvature="0" /></g></g></g></g><path
       style="fill:none;stroke:#000000;stroke-width:1.60000002;stroke-linecap:butt;stroke-linejoin:miter;stroke-miterlimit:4;stroke-opacity:1;stroke-dasharray:none"
       d="m 71.234899,199.69127 c 0,51.38256 239.395981,39.70471 239.395981,0"
       id="path3498"
       inkscape:connector-curvature="0"
       sodipodi:nodetypes="cc" /><path
       sodipodi:nodetypes="cc"
       inkscape:connector-curvature="0"
       id="path4268"
       d="m 71.234899,199.69127 c 0,91.08725 360.033571,55.70471 360.033571,16"
       style="fill:none;stroke:#000000;stroke-width:1.60000002;stroke-linecap:butt;stroke-linejoin:miter;stroke-miterlimit:4;stroke-opacity:1;stroke-dasharray:none" /><path
       sodipodi:nodetypes="cc"
       inkscape:connector-curvature="0"
       id="path4270"
       d="m 184.51007,152.58502 c 0,-45.41051 126.7584,-27.32329 126.7584,7.76665"
       style="fill:none;stroke:#000000;stroke-width:1.60000002;stroke-linecap:butt;stroke-linejoin:miter;stroke-miterlimit:4;stroke-opacity:1;stroke-dasharray:none" /><path
       style="fill:none;stroke:#000000;stroke-width:1.60000002;stroke-linecap:butt;stroke-linejoin:miter;stroke-miterlimit:4;stroke-opacity:1;stroke-dasharray:none"
       d="m 184.51007,152.58502 c 0,-80.500427 249.30753,-35.1692 249.30753,-0.0793"
       id="path4272"
       inkscape:connector-curvature="0"
       sodipodi:nodetypes="cc" /><g
       id="g4274"
       transform="translate(0,-272)" /></g><g
     inkscape:groupmode="layer"
     id="layer1"
     inkscape:label="Ebene"
     style="display:inline"><path
       transform="matrix(1.25,0,0,-1.25,0,86.25)"
       sodipodi:nodetypes="cc"
       inkscape:connector-curvature="0"
       id="path4386"
       d="m 71.234899,-72.30873 c 0,51.38256 239.395981,39.70471 239.395981,0"
       style="display:inline;fill:none;stroke:#225f9e;stroke-width:1.60000001999999997;stroke-linecap:butt;stroke-linejoin:miter;stroke-miterlimit:4;stroke-opacity:1;stroke-dasharray:none" /><path
       transform="matrix(1.25,0,0,-1.25,0,86.25)"
       style="display:inline;fill:none;stroke:#225f9e;stroke-width:1.60000001999999997;stroke-linecap:butt;stroke-linejoin:miter;stroke-miterlimit:4;stroke-opacity:1;stroke-dasharray:none"
       d="m 71.234899,-72.30873 c 0,91.08725 360.033571,55.70471 360.033571,16"
       id="path4388"
       inkscape:connector-curvature="0"
       sodipodi:nodetypes="cc" /><path
       transform="matrix(1.25,0,0,-1.25,0,86.25)"
       style="display:inline;fill:none;stroke:#225f9e;stroke-width:1.60000001999999997;stroke-linecap:butt;stroke-linejoin:miter;stroke-miterlimit:4;stroke-opacity:1;stroke-dasharray:none"
       d="m 184.51007,-119.41498 c 0,-45.41051 126.7584,-27.32329 126.7584,7.76665"
       id="path4390"
       inkscape:connector-curvature="0"
       sodipodi:nodetypes="cc" /><path
       transform="matrix(1.25,0,0,-1.25,0,86.25)"
       sodipodi:nodetypes="cc"
       inkscape:connector-curvature="0"
       id="path4392"
       d="m 184.51007,-119.41498 c 0,-80.50043 249.30753,-35.1692 249.30753,-0.0793"
       style="display:inline;fill:none;stroke:#225f9e;stroke-width:1.60000001999999997;stroke-linecap:butt;stroke-linejoin:miter;stroke-miterlimit:4;stroke-opacity:1;stroke-dasharray:none" /><path
       transform="matrix(1.25,0,0,-1.25,0,86.25)"
       d="m -4.935878,-85.25749 3.0882,0 c 0.7188,0 1.0778,0 1.0778,0.7192 0,0.3949 -0.359,0.3949 -0.9699,0.3949 l -2.9809,0 0.7551,4.0937 c 0.1437,0.7551 0.6468,3.3032 0.8629,3.73401 0.323,0.68319 0.9328,1.22229 1.6879,1.22229 0.1441,0 1.0781,0 1.7589,-0.6473 -1.58,-0.1437 -1.939,-1.4 -1.939,-1.9387 0,-0.8269 0.6472,-1.2582 1.3301,-1.2582 0.9332,0 1.975,0.7911 1.975,2.1563 0,1.6519 -1.6532,2.4769 -3.125,2.4769 -1.22,0 -3.4829,-0.6453 -4.561,-4.2019 -0.216,-0.7531 -0.323,-1.1121 -1.1859,-5.6371 l -2.47815,0 c -0.68086,0 -1.07695,0 -1.07695,-0.6832 0,-0.4309 0.32305,-0.4309 1.00586,-0.4309 l 2.37034,0 -2.69417,-14.1859 c -0.64687,-3.484 -1.2582,-6.752 -3.125,-6.752 -0.14414,0 -1.04219,0 -1.72305,0.6449 1.65196,0.1079 1.975,1.402 1.975,1.9411 0,0.825 -0.64687,1.2558 -1.33007,1.2558 -0.93282,0 -1.975,-0.791 -1.975,-2.1551 0,-1.616 1.58125,-2.4777 3.05312,-2.4777 1.975,0 3.41289,2.1188 4.05781,3.484 1.15,2.2629 1.97496,6.6078 2.01136,6.859 l 2.1558,11.384"
       style="display:inline;fill:#000000;fill-opacity:1;fill-rule:nonzero;stroke:none"
       id="path4282"
       inkscape:connector-curvature="0" /><path
       transform="matrix(1.25,0,0,-1.25,0,86.25)"
       d="m 37.956222,-87.87939 c 0.5391,0 1.22,0 1.22,0.7188 0,0.7191 -0.6809,0.7191 -1.184,0.7191 l -21.5121,0 c -0.5028,0 -1.186,0 -1.186,-0.7191 0,-0.7188 0.6832,-0.7188 1.2219,-0.7188 l 21.441,0 -8e-4,0 z m 0.036,-6.9671 c 0.5031,0 1.184,0 1.184,0.7191 0,0.7168 -0.6809,0.7168 -1.22,0.7168 l -21.441,0 c -0.539,0 -1.2218,0 -1.2218,-0.7168 0,-0.7191 0.6828,-0.7191 1.18591,-0.7191 l 21.51289,0"
       style="display:inline;fill:#000000;fill-opacity:1;fill-rule:nonzero;stroke:none"
       id="path4284"
       inkscape:connector-curvature="0" /><path
       transform="matrix(1.25,0,0,-1.25,0,86.25)"
       inkscape:connector-curvature="0"
       id="path4288"
       style="display:inline;fill:none;stroke:#000000;stroke-width:1.43280004999999999;stroke-linecap:butt;stroke-linejoin:miter;stroke-miterlimit:10;stroke-opacity:1;stroke-dasharray:none"
       d="m 51.133222,-72.67469 43.348,0" /><path
       transform="matrix(1.25,0,0,-1.25,0,86.25)"
       inkscape:connector-curvature="0"
       id="path4292"
       style="display:inline;fill:none;stroke:#000000;stroke-width:1.43280004999999999;stroke-linecap:butt;stroke-linejoin:miter;stroke-miterlimit:10;stroke-opacity:1;stroke-dasharray:none"
       d="m 51.849222,-110.35549 0,36.9609" /><path
       transform="matrix(1.25,0,0,-1.25,0,86.25)"
       d="m 76.678132,-86.04849 c -0.64491,1.3301 -1.68711,2.298 -3.30271,2.298 -4.20239,0 -8.6563,-5.2781 -8.6563,-10.5218 0,-3.3774 1.97701,-5.7473 4.777,-5.7473 0.7191,0 2.5141,0.1441 4.6691,2.6941 0.2879,-1.5082 1.545,-2.6941 3.2692,-2.6941 1.2578,0 2.0828,0.827 2.6578,1.975 0.6109,1.2941 1.0781,3.484 1.0781,3.5563 0,0.3589 -0.32299,0.3589 -0.43119,0.3589 -0.35901,0 -0.395,-0.1441 -0.5028,-0.6472 -0.61091,-2.334 -1.25821,-4.4528 -2.73011,-4.4528 -0.96989,0 -1.07689,0.9329 -1.07689,1.652 0,0.791 0.07189,1.0777 0.46599,2.6578 0.3949,1.5082 0.46681,1.8672 0.79101,3.2332 l 1.29179,5.0277 c 0.25201,1.0051 0.25201,1.0774 0.25201,1.2204 0,0.6109 -0.4297,0.9699 -1.04101,0.9699 -0.86179,0 -1.40199,-0.791 -1.50899,-1.5813 l -0.002,0.0012 z m -2.334,-9.302 c -0.18001,-0.6468 -0.18001,-0.7171 -0.71681,-1.3281 -1.5812,-1.975 -3.0531,-2.55 -4.05889,-2.55 -1.79541,0 -2.29811,1.975 -2.29811,3.375 0,1.7973 1.15,6.2141 1.97701,7.866 1.11289,2.1192 2.7281,3.4481 4.166,3.4481 2.334,0 2.83789,-2.9449 2.83789,-3.161 0,-0.216 -0.07189,-0.4308 -0.10779,-0.6109 l -1.7973,-7.0391"
       style="display:inline;fill:#000000;fill-opacity:1;fill-rule:nonzero;stroke:none"
       id="path4294"
       inkscape:connector-curvature="0" /><path
       transform="matrix(1.25,0,0,-1.25,0,86.25)"
       inkscape:connector-curvature="0"
       id="path4298"
       style="display:inline;fill:none;stroke:#000000;stroke-width:1.43280004999999999;stroke-linecap:butt;stroke-linejoin:miter;stroke-miterlimit:10;stroke-opacity:1;stroke-dasharray:none"
       d="m 93.761222,-110.35549 0,36.9609" /><path
       transform="matrix(1.25,0,0,-1.25,0,86.25)"
       inkscape:connector-curvature="0"
       id="path4302"
       style="display:inline;fill:none;stroke:#000000;stroke-width:1.43280004999999999;stroke-linecap:butt;stroke-linejoin:miter;stroke-miterlimit:10;stroke-opacity:1;stroke-dasharray:none"
       d="m 51.133222,-111.07229 43.348,0" /><path
       transform="matrix(1.25,0,0,-1.25,0,86.25)"
       d="m 109.37822,-90.64539 c 0,1.0418 -0.862,1.9028 -1.903,1.9028 -1.042,0 -1.903,-0.861 -1.903,-1.9028 0,-1.041 0.861,-1.9031 1.903,-1.9031 1.041,0 1.903,0.8629 1.903,1.9031"
       style="display:inline;fill:#000000;fill-opacity:1;fill-rule:nonzero;stroke:none"
       id="path4304"
       inkscape:connector-curvature="0" /><path
       transform="matrix(1.25,0,0,-1.25,0,86.25)"
       inkscape:connector-curvature="0"
       id="path4308"
       style="display:inline;fill:none;stroke:#000000;stroke-width:1.43280004999999999;stroke-linecap:butt;stroke-linejoin:miter;stroke-miterlimit:10;stroke-opacity:1;stroke-dasharray:none"
       d="m 120.38322,-61.21959 127.033,0" /><path
       transform="matrix(1.25,0,0,-1.25,0,86.25)"
       inkscape:connector-curvature="0"
       id="path4312"
       style="display:inline;fill:none;stroke:#000000;stroke-width:1.43280004999999999;stroke-linecap:butt;stroke-linejoin:miter;stroke-miterlimit:10;stroke-opacity:1;stroke-dasharray:none"
       d="m 121.09922,-119.31958 0,57.38399" /><path
       transform="matrix(1.25,0,0,-1.25,0,86.25)"
       d="m 144.47122,-108.24259 c 0,0.1082 0,0.18 -0.611,0.789 -4.489,4.525 -5.637,11.3141 -5.637,16.8082 0,6.25 1.364,12.4981 5.781,16.9879 0.467,0.4309 0.467,0.5031 0.467,0.611 0,0.2519 -0.144,0.3589 -0.359,0.3589 -0.359,0 -3.591,-2.4418 -5.709,-7.00309 -1.833,-3.95191 -2.262,-7.93671 -2.262,-10.95471 0,-2.8019 0.394,-7.1472 2.37,-11.2051 2.155,-4.4171 5.242,-6.7519 5.602,-6.7519 0.216,0 0.359,0.1078 0.359,0.359"
       style="display:inline;fill:#000000;fill-opacity:1;fill-rule:nonzero;stroke:none"
       id="path4314"
       inkscape:connector-curvature="0" /><path
       transform="matrix(1.25,0,0,-1.25,0,86.25)"
       d="m 155.06622,-75.09339 c 0,0.0359 0,0.3949 -0.466,0.3949 -0.827,0 -3.448,-0.2871 -4.383,-0.359 -0.286,-0.0359 -0.681,-0.0719 -0.681,-0.7191 0,-0.4309 0.323,-0.4309 0.861,-0.4309 1.725,0 1.797,-0.2519 1.797,-0.609 0,-0.2519 -0.323,-1.473 -0.503,-2.2281 l -2.945,-11.7078 c -0.431,-1.7949 -0.575,-2.3699 -0.575,-3.627 0,-3.4121 1.905,-5.639 4.561,-5.639 4.239,0 8.656,5.3519 8.656,10.523 0,3.2668 -1.903,5.7449 -4.777,5.7449 -1.653,0 -3.125,-1.041 -4.202,-2.155 l 2.656,10.81091 10e-4,0.0012 z m -3.375,-13.577 c 0.216,0.791 0.216,0.8629 0.539,1.2578 1.759,2.334 3.375,2.8731 4.309,2.8731 1.292,0 2.263,-1.0781 2.263,-3.377 0,-2.1191 -1.186,-6.248 -1.831,-7.614 -1.186,-2.4059 -2.837,-3.6981 -4.239,-3.6981 -1.22,0 -2.406,0.9692 -2.406,3.627 0,0.6832 0,1.366 0.575,3.6281 l 0.791,3.3031"
       style="display:inline;fill:#000000;fill-opacity:1;fill-rule:nonzero;stroke:none"
       id="path4316"
       inkscape:connector-curvature="0" /><path
       transform="matrix(1.25,0,0,-1.25,0,86.25)"
       d="m 184.57222,-91.36259 10.02,0 c 0.503,0 1.184,0 1.184,0.7172 0,0.7188 -0.681,0.7188 -1.184,0.7188 l -10.02,0 0,10.0562 c 0,0.5028 0,1.184 -0.719,1.184 -0.719,0 -0.719,-0.6812 -0.719,-1.184 l 0,-10.0562 -10.055,0 c -0.503,0 -1.186,0 -1.186,-0.7188 0,-0.7172 0.683,-0.7172 1.186,-0.7172 l 10.055,0 0,-10.0558 c 0,-0.5031 0,-1.186 0.719,-1.186 0.719,0 0.719,0.6829 0.719,1.186 l 0,10.0558"
       style="display:inline;fill:#000000;fill-opacity:1;fill-rule:nonzero;stroke:none"
       id="path4318"
       inkscape:connector-curvature="0" /><path
       transform="matrix(1.25,0,0,-1.25,0,86.25)"
       d="m 220.00522,-85.97659 c -0.575,0 -1.077,0 -1.58,-0.502 -0.575,-0.539 -0.647,-1.15 -0.647,-1.4019 0,-0.8621 0.647,-1.2559 1.328,-1.2559 1.042,0 2.013,0.8609 2.013,2.2981 0,1.7589 -1.689,3.0878 -4.239,3.0878 -4.848,0 -9.625,-5.1339 -9.625,-10.198 0,-3.2328 2.084,-6.0699 5.819,-6.0699 5.136,0 8.153,3.8078 8.153,4.2379 0,0.216 -0.216,0.4672 -0.431,0.4672 -0.18,0 -0.252,-0.0723 -0.467,-0.359 -2.837,-3.5551 -6.752,-3.5551 -7.183,-3.5551 -2.262,0 -3.233,1.759 -3.233,3.9141 0,1.4726 0.719,4.9558 1.939,7.1828 1.114,2.0468 3.089,3.5922 5.064,3.5922 1.222,0 2.586,-0.4672 3.089,-1.4372"
       style="display:inline;fill:#000000;fill-opacity:1;fill-rule:nonzero;stroke:none"
       id="path4320"
       inkscape:connector-curvature="0" /><path
       transform="matrix(1.25,0,0,-1.25,0,86.25)"
       d="m 231.66322,-90.64539 c 0,2.802 -0.395,7.1469 -2.37,11.2059 -2.155,4.4172 -5.244,6.7519 -5.603,6.7519 -0.216,0 -0.359,-0.1437 -0.359,-0.3589 0,-0.1079 0,-0.1801 0.683,-0.827 3.519,-3.55509 5.567,-9.266 5.567,-16.7719 0,-6.141 -1.33,-12.4621 -5.783,-16.9871 -0.467,-0.4301 -0.467,-0.5019 -0.467,-0.609 0,-0.216 0.144,-0.359 0.359,-0.359 0.359,0 3.592,2.4418 5.711,7.0032 1.831,3.95 2.263,7.9379 2.263,10.9527"
       style="display:inline;fill:#000000;fill-opacity:1;fill-rule:nonzero;stroke:none"
       id="path4322"
       inkscape:connector-curvature="0" /><path
       transform="matrix(1.25,0,0,-1.25,0,86.25)"
       inkscape:connector-curvature="0"
       id="path4326"
       style="display:inline;fill:none;stroke:#000000;stroke-width:1.43280004999999999;stroke-linecap:butt;stroke-linejoin:miter;stroke-miterlimit:10;stroke-opacity:1;stroke-dasharray:none"
       d="m 246.69622,-119.31958 0,57.38399" /><path
       transform="matrix(1.25,0,0,-1.25,0,86.25)"
       inkscape:connector-curvature="0"
       id="path4330"
       style="display:inline;fill:none;stroke:#000000;stroke-width:1.43280004999999999;stroke-linecap:butt;stroke-linejoin:miter;stroke-miterlimit:10;stroke-opacity:1;stroke-dasharray:none"
       d="m 120.38322,-120.03638 127.033,0" /><path
       transform="matrix(1.25,0,0,-1.25,0,86.25)"
       d="m 270.07222,-91.36259 10.02,0 c 0.503,0 1.184,0 1.184,0.7172 0,0.7188 -0.681,0.7188 -1.184,0.7188 l -10.02,0 0,10.0562 c 0,0.5028 0,1.184 -0.719,1.184 -0.719,0 -0.719,-0.6812 -0.719,-1.184 l 0,-10.0562 -10.055,0 c -0.503,0 -1.186,0 -1.186,-0.7188 0,-0.7172 0.683,-0.7172 1.186,-0.7172 l 10.055,0 0,-10.0558 c 0,-0.5031 0,-1.186 0.719,-1.186 0.719,0 0.719,0.6829 0.719,1.186 l 0,10.0558"
       style="display:inline;fill:#225f9e;fill-opacity:1;fill-rule:nonzero;stroke:none"
       id="path4332"
       inkscape:connector-curvature="0" /><path
       transform="matrix(1.25,0,0,-1.25,0,86.25)"
       inkscape:connector-curvature="0"
       id="path4336"
       style="display:inline;fill:none;stroke:#000000;stroke-width:1.43280004999999999;stroke-linecap:butt;stroke-linejoin:miter;stroke-miterlimit:10;stroke-opacity:1;stroke-dasharray:none"
       d="m 291.24922,-72.67469 39.91,0" /><path
       transform="matrix(1.25,0,0,-1.25,0,86.25)"
       inkscape:connector-curvature="0"
       id="path4340"
       style="display:inline;fill:none;stroke:#000000;stroke-width:1.43280004999999999;stroke-linecap:butt;stroke-linejoin:miter;stroke-miterlimit:10;stroke-opacity:1;stroke-dasharray:none"
       d="m 291.96622,-110.35549 0,36.9609" /><path
       transform="matrix(1.25,0,0,-1.25,0,86.25)"
       d="m 317.70522,-85.97659 c -0.575,0 -1.077,0 -1.58,-0.502 -0.575,-0.539 -0.647,-1.15 -0.647,-1.4019 0,-0.8621 0.647,-1.2559 1.328,-1.2559 1.042,0 2.013,0.8609 2.013,2.2981 0,1.7589 -1.689,3.0878 -4.239,3.0878 -4.848,0 -9.625,-5.1339 -9.625,-10.198 0,-3.2328 2.084,-6.0699 5.819,-6.0699 5.136,0 8.153,3.8078 8.153,4.2379 0,0.216 -0.216,0.4672 -0.431,0.4672 -0.18,0 -0.252,-0.0723 -0.467,-0.359 -2.837,-3.5551 -6.752,-3.5551 -7.183,-3.5551 -2.262,0 -3.233,1.759 -3.233,3.9141 0,1.4726 0.719,4.9558 1.939,7.1828 1.114,2.0468 3.089,3.5922 5.064,3.5922 1.222,0 2.586,-0.4672 3.089,-1.4372"
       style="display:inline;fill:#000000;fill-opacity:1;fill-rule:nonzero;stroke:none"
       id="path4342"
       inkscape:connector-curvature="0" /><path
       transform="matrix(1.25,0,0,-1.25,0,86.25)"
       inkscape:connector-curvature="0"
       id="path4346"
       style="display:inline;fill:none;stroke:#000000;stroke-width:1.43280004999999999;stroke-linecap:butt;stroke-linejoin:miter;stroke-miterlimit:10;stroke-opacity:1;stroke-dasharray:none"
       d="m 330.44222,-110.35549 0,36.9609" /><path
       transform="matrix(1.25,0,0,-1.25,0,86.25)"
       inkscape:connector-curvature="0"
       id="path4350"
       style="display:inline;fill:none;stroke:#000000;stroke-width:1.43280004999999999;stroke-linecap:butt;stroke-linejoin:miter;stroke-miterlimit:10;stroke-opacity:1;stroke-dasharray:none"
       d="m 291.24922,-111.07229 39.91,0" /><path
       transform="matrix(1.25,0,0,-1.25,0,86.25)"
       d="m 345.97822,-90.64539 c 0,1.0418 -0.862,1.9028 -1.903,1.9028 -1.042,0 -1.903,-0.861 -1.903,-1.9028 0,-1.041 0.861,-1.9031 1.903,-1.9031 1.041,0 1.903,0.8629 1.903,1.9031"
       style="display:inline;fill:#000000;fill-opacity:1;fill-rule:nonzero;stroke:none"
       id="path4352"
       inkscape:connector-curvature="0" /><path
       transform="matrix(1.25,0,0,-1.25,0,86.25)"
       inkscape:connector-curvature="0"
       id="path4356"
       style="display:inline;fill:none;stroke:#000000;stroke-width:1.43280004999999999;stroke-linecap:butt;stroke-linejoin:miter;stroke-miterlimit:10;stroke-opacity:1;stroke-dasharray:none"
       d="m 357.06122,-56.03949 145.991,0" /><path
       transform="matrix(1.25,0,0,-1.25,0,86.25)"
       inkscape:connector-curvature="0"
       id="path4360"
       style="display:inline;fill:none;stroke:#000000;stroke-width:1.43280004999999999;stroke-linecap:butt;stroke-linejoin:miter;stroke-miterlimit:10;stroke-opacity:1;stroke-dasharray:none"
       d="m 357.77822,-119.31958 0,62.56409" /><path
       transform="matrix(1.25,0,0,-1.25,0,86.25)"
       d="m 381.17122,-108.24259 c 0,0.1082 0,0.18 -0.611,0.789 -4.489,4.525 -5.637,11.3141 -5.637,16.8082 0,6.25 1.364,12.4981 5.781,16.9879 0.467,0.4309 0.467,0.5031 0.467,0.611 0,0.2519 -0.144,0.3589 -0.359,0.3589 -0.359,0 -3.591,-2.4418 -5.709,-7.00309 -1.833,-3.95191 -2.262,-7.93671 -2.262,-10.95471 0,-2.8019 0.394,-7.1472 2.37,-11.2051 2.155,-4.4171 5.242,-6.7519 5.602,-6.7519 0.216,0 0.359,0.1078 0.359,0.359"
       style="display:inline;fill:#000000;fill-opacity:1;fill-rule:nonzero;stroke:none"
       id="path4362"
       inkscape:connector-curvature="0" /><path
       transform="matrix(1.25,0,0,-1.25,0,86.25)"
       d="m 396.57822,-86.04849 c -0.645,1.3301 -1.687,2.298 -3.303,2.298 -4.202,0 -8.656,-5.2781 -8.656,-10.5218 0,-3.3774 1.977,-5.7473 4.777,-5.7473 0.719,0 2.514,0.1441 4.669,2.6941 0.288,-1.5082 1.545,-2.6941 3.269,-2.6941 1.258,0 2.083,0.827 2.658,1.975 0.611,1.2941 1.078,3.484 1.078,3.5563 0,0.3589 -0.323,0.3589 -0.431,0.3589 -0.359,0 -0.395,-0.1441 -0.503,-0.6472 -0.611,-2.334 -1.258,-4.4528 -2.73,-4.4528 -0.97,0 -1.077,0.9329 -1.077,1.652 0,0.791 0.072,1.0777 0.466,2.6578 0.395,1.5082 0.467,1.8672 0.791,3.2332 l 1.292,5.0277 c 0.252,1.0051 0.252,1.0774 0.252,1.2204 0,0.6109 -0.43,0.9699 -1.041,0.9699 -0.862,0 -1.402,-0.791 -1.509,-1.5813 l -0.002,0.0012 z m -2.334,-9.302 c -0.18,-0.6468 -0.18,-0.7171 -0.717,-1.3281 -1.581,-1.975 -3.053,-2.55 -4.059,-2.55 -1.795,0 -2.298,1.975 -2.298,3.375 0,1.7973 1.15,6.2141 1.977,7.866 1.113,2.1192 2.728,3.4481 4.166,3.4481 2.334,0 2.838,-2.9449 2.838,-3.161 0,-0.216 -0.072,-0.4308 -0.108,-0.6109 l -1.797,-7.0391"
       style="display:inline;fill:#000000;fill-opacity:1;fill-rule:nonzero;stroke:none"
       id="path4364"
       inkscape:connector-curvature="0" /><path
       transform="matrix(1.25,0,0,-1.25,0,86.25)"
       d="m 424.77222,-91.36259 10.02,0 c 0.503,0 1.184,0 1.184,0.7172 0,0.7188 -0.681,0.7188 -1.184,0.7188 l -10.02,0 0,10.0562 c 0,0.5028 0,1.184 -0.719,1.184 -0.719,0 -0.719,-0.6812 -0.719,-1.184 l 0,-10.0562 -10.055,0 c -0.503,0 -1.186,0 -1.186,-0.7188 0,-0.7172 0.683,-0.7172 1.186,-0.7172 l 10.055,0 0,-10.0558 c 0,-0.5031 0,-1.186 0.719,-1.186 0.719,0 0.719,0.6829 0.719,1.186 l 0,10.0558"
       style="display:inline;fill:#000000;fill-opacity:1;fill-rule:nonzero;stroke:none"
       id="path4366"
       inkscape:connector-curvature="0" /><path
       transform="matrix(1.25,0,0,-1.25,0,86.25)"
       inkscape:connector-curvature="0"
       id="path4370"
       style="display:inline;fill:none;stroke:#000000;stroke-width:1.43280004999999999;stroke-linecap:butt;stroke-linejoin:miter;stroke-miterlimit:10;stroke-opacity:1;stroke-dasharray:none"
       d="m 445.99922,-69.66839 15.394,0" /><path
       transform="matrix(1.25,0,0,-1.25,0,86.25)"
       d="m 454.56622,-75.09339 c 0,0.0359 0,0.3949 -0.466,0.3949 -0.827,0 -3.448,-0.2871 -4.383,-0.359 -0.286,-0.0359 -0.681,-0.0719 -0.681,-0.7191 0,-0.4309 0.323,-0.4309 0.861,-0.4309 1.725,0 1.797,-0.2519 1.797,-0.609 0,-0.2519 -0.323,-1.473 -0.503,-2.2281 l -2.945,-11.7078 c -0.431,-1.7949 -0.575,-2.3699 -0.575,-3.627 0,-3.4121 1.905,-5.639 4.561,-5.639 4.239,0 8.656,5.3519 8.656,10.523 0,3.2668 -1.903,5.7449 -4.777,5.7449 -1.653,0 -3.125,-1.041 -4.202,-2.155 l 2.656,10.81091 10e-4,0.0012 z m -3.375,-13.577 c 0.216,0.791 0.216,0.8629 0.539,1.2578 1.759,2.334 3.375,2.8731 4.309,2.8731 1.292,0 2.263,-1.0781 2.263,-3.377 0,-2.1191 -1.186,-6.248 -1.831,-7.614 -1.186,-2.4059 -2.837,-3.6981 -4.239,-3.6981 -1.22,0 -2.406,0.9692 -2.406,3.627 0,0.6832 0,1.366 0.575,3.6281 l 0.791,3.3031"
       style="display:inline;fill:#000000;fill-opacity:1;fill-rule:nonzero;stroke:none"
       id="path4372"
       inkscape:connector-curvature="0" /><path
       transform="matrix(1.25,0,0,-1.25,0,86.25)"
       d="m 475.60522,-85.97659 c -0.575,0 -1.077,0 -1.58,-0.502 -0.575,-0.539 -0.647,-1.15 -0.647,-1.4019 0,-0.8621 0.647,-1.2559 1.328,-1.2559 1.042,0 2.013,0.8609 2.013,2.2981 0,1.7589 -1.689,3.0878 -4.239,3.0878 -4.848,0 -9.625,-5.1339 -9.625,-10.198 0,-3.2328 2.084,-6.0699 5.819,-6.0699 5.136,0 8.153,3.8078 8.153,4.2379 0,0.216 -0.216,0.4672 -0.431,0.4672 -0.18,0 -0.252,-0.0723 -0.467,-0.359 -2.837,-3.5551 -6.752,-3.5551 -7.183,-3.5551 -2.262,0 -3.233,1.759 -3.233,3.9141 0,1.4726 0.719,4.9558 1.939,7.1828 1.114,2.0468 3.089,3.5922 5.064,3.5922 1.222,0 2.586,-0.4672 3.089,-1.4372"
       style="display:inline;fill:#000000;fill-opacity:1;fill-rule:nonzero;stroke:none"
       id="path4374"
       inkscape:connector-curvature="0" /><path
       transform="matrix(1.25,0,0,-1.25,0,86.25)"
       d="m 487.26322,-90.64539 c 0,2.802 -0.395,7.1469 -2.37,11.2059 -2.155,4.4172 -5.244,6.7519 -5.603,6.7519 -0.216,0 -0.359,-0.1437 -0.359,-0.3589 0,-0.1079 0,-0.1801 0.683,-0.827 3.519,-3.55509 5.567,-9.266 5.567,-16.7719 0,-6.141 -1.33,-12.4621 -5.783,-16.9871 -0.467,-0.4301 -0.467,-0.5019 -0.467,-0.609 0,-0.216 0.144,-0.359 0.359,-0.359 0.359,0 3.592,2.4418 5.711,7.0032 1.831,3.95 2.263,7.9379 2.263,10.9527"
       style="display:inline;fill:#000000;fill-opacity:1;fill-rule:nonzero;stroke:none"
       id="path4376"
       inkscape:connector-curvature="0" /><path
       transform="matrix(1.25,0,0,-1.25,0,86.25)"
       inkscape:connector-curvature="0"
       id="path4380"
       style="display:inline;fill:none;stroke:#000000;stroke-width:1.43280004999999999;stroke-linecap:butt;stroke-linejoin:miter;stroke-miterlimit:10;stroke-opacity:1;stroke-dasharray:none"
       d="m 502.33522,-119.31958 0,62.56409" /><path
       transform="matrix(1.25,0,0,-1.25,0,86.25)"
       inkscape:connector-curvature="0"
       id="path4384"
       style="display:inline;fill:none;stroke:#000000;stroke-width:1.43280004999999999;stroke-linecap:butt;stroke-linejoin:miter;stroke-miterlimit:10;stroke-opacity:1;stroke-dasharray:none"
       d="m 357.06122,-120.03638 145.991,0" /></g><g
     inkscape:groupmode="layer"
     id="layer2"
     inkscape:label="Tex"
     style="display:inline"><text
       xml:space="preserve"
       style="font-size:12px;font-style:normal;font-variant:normal;font-weight:normal;font-stretch:normal;text-align:start;line-height:125%;letter-spacing:0px;word-spacing:0px;writing-mode:lr-tb;text-anchor:start;fill:#000000;fill-opacity:1;stroke:none;font-family:Sans;-inkscape-font-specification:Sans"
       x="41.353931"
       y="45.470428"
       id="text4668"
       sodipodi:linespacing="125%"><tspan
         sodipodi:role="line"
         id="tspan4670"
         x="41.353931"
         y="45.470428">f = \fbox{$a$} \cdot \fbox{$(b + c)$} + \fbox{$c$} \cdot \fbox{$(a + \overline{b}c)$}</tspan></text>
</g></svg>