<?xml version="1.0" encoding="UTF-8" standalone="no"?>
<!-- Created with Inkscape (http://www.inkscape.org/) -->

<svg
   xmlns:dc="http://purl.org/dc/elements/1.1/"
   xmlns:cc="http://creativecommons.org/ns#"
   xmlns:rdf="http://www.w3.org/1999/02/22-rdf-syntax-ns#"
   xmlns:svg="http://www.w3.org/2000/svg"
   xmlns="http://www.w3.org/2000/svg"
   xmlns:sodipodi="http://sodipodi.sourceforge.net/DTD/sodipodi-0.dtd"
   xmlns:inkscape="http://www.inkscape.org/namespaces/inkscape"
   id="svg3349"
   version="1.1"
   inkscape:version="0.48.2 r9819"
   width="652.5"
   height="86.25"
   xml:space="preserve"
   sodipodi:docname="Ausmultiplizieren.svg"><metadata
     id="metadata3355"><rdf:RDF><cc:Work
         rdf:about=""><dc:format>image/svg+xml</dc:format><dc:type
           rdf:resource="http://purl.org/dc/dcmitype/StillImage" /><dc:title></dc:title></cc:Work></rdf:RDF></metadata><defs
     id="defs3353"><clipPath
       clipPathUnits="userSpaceOnUse"
       id="clipPath3365"><path
         d="M 0.9960939,1 520.996,1 l 0,67 -519.9999061,0 0,-67 z"
         id="path3367" /></clipPath><clipPath
       clipPathUnits="userSpaceOnUse"
       id="clipPath3371"><path
         d="M 0,0 522,0 522,69 0,69 0,0 z"
         id="path3373" /></clipPath><clipPath
       id="clipPath5117"
       clipPathUnits="userSpaceOnUse"><path
         id="path5119"
         d="M 0,0 567,0 567,59 0,59 0,0 z" /></clipPath><clipPath
       id="clipPath5111"
       clipPathUnits="userSpaceOnUse"><path
         id="path5113"
         d="M 0.9960939,1 565.996,1 l 0,57 -564.9999061,0 0,-57 z" /></clipPath></defs><sodipodi:namedview
     pagecolor="#ffffff"
     bordercolor="#666666"
     borderopacity="1"
     objecttolerance="10"
     gridtolerance="10"
     guidetolerance="10"
     inkscape:pageopacity="0"
     inkscape:pageshadow="2"
     inkscape:window-width="1920"
     inkscape:window-height="1178"
     id="namedview3351"
     showgrid="false"
     inkscape:zoom="1.7410678"
     inkscape:cx="293.35547"
     inkscape:cy="97.458422"
     inkscape:window-x="0"
     inkscape:window-y="0"
     inkscape:window-maximized="1"
     inkscape:current-layer="layer2" /><g
     id="g3357"
     inkscape:groupmode="layer"
     inkscape:label="Ausmultiplizieren"
     transform="matrix(1.25,0,0,-1.25,0,86.25)"
     style="display:inline"><path
       sodipodi:nodetypes="cc"
       inkscape:connector-curvature="0"
       id="path5638"
       d="m 74.00835,-76.51281 c 0,-64.2282 102.78312,-61.63089 102.78312,-12"
       style="display:inline;fill:none;stroke:#225f9e;stroke-width:2;stroke-linecap:butt;stroke-linejoin:miter;stroke-miterlimit:4;stroke-opacity:1;stroke-dasharray:none"
       transform="matrix(0.8,0,0,-0.8,0,69)" /><path
       style="display:inline;fill:none;stroke:#225f9e;stroke-width:2;stroke-linecap:butt;stroke-linejoin:miter;stroke-miterlimit:4;stroke-opacity:1;stroke-dasharray:none"
       d="m 74.00835,-76.51281 c 0,-101.56161 206.78312,-99.02586 206.78312,0"
       id="path5642"
       inkscape:connector-curvature="0"
       sodipodi:nodetypes="cc"
       transform="matrix(0.8,0,0,-0.8,0,69)" /><path
       style="display:inline;fill:none;stroke:#225f9e;stroke-width:2;stroke-linecap:butt;stroke-linejoin:miter;stroke-miterlimit:4;stroke-opacity:1;stroke-dasharray:none"
       d="m 404.00835,-76.51281 c 0,-64.2282 102.78312,-66.86169 102.78312,0"
       id="path5644"
       inkscape:connector-curvature="0"
       sodipodi:nodetypes="cc"
       transform="matrix(0.8,0,0,-0.8,0,69)" /><path
       sodipodi:nodetypes="cc"
       inkscape:connector-curvature="0"
       id="path5646"
       d="m 404.00835,-76.512814 c 0,-98.744456 221.10131,-95.223896 221.10131,-20"
       style="display:inline;fill:none;stroke:#225f9e;stroke-width:2;stroke-linecap:butt;stroke-linejoin:miter;stroke-miterlimit:4;stroke-opacity:1;stroke-dasharray:none"
       transform="matrix(0.8,0,0,-0.8,0,69)" /><g
       id="g3359" /><g
       id="g4274"
       transform="translate(0,-272)" /><path
       id="path5121"
       style="fill:#000000;fill-opacity:1;fill-rule:nonzero;stroke:none"
       d="m -18.243081,117.30584 3.0882,0 c 0.7188,0 1.0778,0 1.0778,0.7192 0,0.3949 -0.359,0.3949 -0.9699,0.3949 l -2.9809,0 0.7551,4.0937 c 0.1437,0.7551 0.6468,3.3032 0.8629,3.734 0.323,0.6832 0.9328,1.2223 1.6879,1.2223 0.1441,0 1.0781,0 1.7589,-0.6473 -1.58,-0.1437 -1.939,-1.4 -1.939,-1.9387 0,-0.8269 0.6472,-1.2582 1.3301,-1.2582 0.9332,0 1.975,0.7911 1.975,2.15631 0,1.65189 -1.6532,2.47689 -3.125,2.47689 -1.22,0 -3.4829,-0.6453 -4.561,-4.2019 -0.216,-0.7531 -0.323,-1.1121 -1.1859,-5.6371 l -2.47815,0 c -0.68086,0 -1.07695,0 -1.07695,-0.6832 0,-0.4309 0.32305,-0.4309 1.00586,-0.4309 l 2.37031,0 -2.69414,-14.1859 c -0.64687,-3.484001 -1.2582,-6.751981 -3.125,-6.751981 -0.14414,0 -1.04219,0 -1.72305,0.64493 1.65196,0.10781 1.975,1.40195 1.975,1.94101 0,0.82504 -0.64687,1.255841 -1.33007,1.255841 -0.93282,0 -1.975,-0.790991 -1.975,-2.15506 0,-1.616011 1.58125,-2.477731 3.05312,-2.477731 1.975,0 3.41289,2.11875 4.05781,3.48398 1.150001,2.262911 1.97496,6.607811 2.01136,6.859011 l 2.1558,11.384"
       inkscape:connector-curvature="0" /><path
       id="path5123"
       style="fill:#000000;fill-opacity:1;fill-rule:nonzero;stroke:none"
       d="m 24.649019,114.68394 c 0.5391,0 1.22,0 1.22,0.7188 0,0.7191 -0.6809,0.7191 -1.184,0.7191 l -21.5121,0 c -0.5028,0 -1.186,0 -1.186,-0.7191 0,-0.7188 0.6832,-0.7188 1.2219,-0.7188 l 21.441,0 -8e-4,0 z m 0.036,-6.9671 c 0.5031,0 1.184,0 1.184,0.7191 0,0.7168 -0.6809,0.7168 -1.22,0.7168 l -21.441,0 c -0.539,0 -1.2218,0 -1.2218,-0.7168 0,-0.7191 0.6828,-0.7191 1.1859,-0.7191 l 21.5129,0"
       inkscape:connector-curvature="0" /><path
       inkscape:connector-curvature="0"
       d="m 37.836229,129.88864 43.34679,0"
       style="fill:none;stroke:#000000;stroke-width:1.43280005;stroke-linecap:butt;stroke-linejoin:miter;stroke-miterlimit:10;stroke-opacity:1;stroke-dasharray:none"
       id="path5127" /><path
       inkscape:connector-curvature="0"
       d="m 38.556129,92.207809 0,36.960941"
       style="fill:none;stroke:#000000;stroke-width:1.43280005;stroke-linecap:butt;stroke-linejoin:miter;stroke-miterlimit:10;stroke-opacity:1;stroke-dasharray:none"
       id="path5131" /><path
       id="path5133"
       style="fill:#000000;fill-opacity:1;fill-rule:nonzero;stroke:none"
       d="m 63.470919,116.51484 c -0.6449,1.3301 -1.68709,2.298 -3.30269,2.298 -4.2024,0 -8.65631,-5.2781 -8.65631,-10.5218 0,-3.3774 1.97701,-5.7473 4.777,-5.7473 0.7191,0 2.51409,0.1441 4.6691,2.6941 0.2879,-1.5082 1.545,-2.6941 3.2692,-2.6941 1.2578,0 2.0828,0.827 2.6578,1.975 0.6109,1.2941 1.0781,3.484 1.0781,3.5563 0,0.3589 -0.32299,0.3589 -0.43119,0.3589 -0.359,0 -0.395,-0.1441 -0.5028,-0.6472 -0.6109,-2.334 -1.2582,-4.4528 -2.73011,-4.4528 -0.96989,0 -1.07689,0.9329 -1.07689,1.652 0,0.791 0.07189,1.0777 0.46599,2.6578 0.3949,1.5082 0.46681,1.8672 0.79101,3.2332 l 1.2918,5.0277 c 0.25199,1.0051 0.25199,1.0774 0.25199,1.2204 0,0.6109 -0.42969,0.9699 -1.041,0.9699 -0.8618,0 -1.40199,-0.791 -1.50899,-1.5813 l -0.002,0.001 z m -2.33399,-9.302 c -0.18001,-0.6468 -0.18001,-0.7171 -0.7168,-1.3281 -1.5812,-1.975 -3.05311,-2.55 -4.0589,-2.55 -1.79541,0 -2.29811,1.975 -2.29811,3.375 0,1.7973 1.15,6.2141 1.97701,7.866 1.11289,2.1192 2.72809,3.4481 4.16599,3.4481 2.33401,0 2.8379,-2.9449 2.8379,-3.161 0,-0.216 -0.07189,-0.4308 -0.1078,-0.6109 l -1.7973,-7.0391"
       inkscape:connector-curvature="0" /><path
       inkscape:connector-curvature="0"
       d="m 80.467019,92.207809 0,36.960941"
       style="fill:none;stroke:#000000;stroke-width:1.43280005;stroke-linecap:butt;stroke-linejoin:miter;stroke-miterlimit:10;stroke-opacity:1;stroke-dasharray:none"
       id="path5137" /><path
       inkscape:connector-curvature="0"
       d="m 37.836229,91.491009 43.34679,0"
       style="fill:none;stroke:#000000;stroke-width:1.43280005;stroke-linecap:butt;stroke-linejoin:miter;stroke-miterlimit:10;stroke-opacity:1;stroke-dasharray:none"
       id="path5141" /><path
       id="path5143"
       style="fill:#225f9e;fill-opacity:1;fill-rule:nonzero;stroke:none"
       d="m 96.071019,111.91794 c 0,1.0418 -0.862,1.9028 -1.903,1.9028 -1.042,0 -1.903,-0.861 -1.903,-1.9028 0,-1.041 0.861,-1.9031 1.903,-1.9031 1.041,0 1.903,0.8629 1.903,1.9031"
       inkscape:connector-curvature="0" /><path
       id="path5145"
       style="fill:#000000;fill-opacity:1;fill-rule:nonzero;stroke:none"
       d="m 118.96402,94.320699 c 0,0.1082 0,0.18008 -0.611,0.78906 -4.489,4.52498 -5.637,11.314081 -5.637,16.808181 0,6.25 1.364,12.4981 5.781,16.9879 0.467,0.4309 0.467,0.5031 0.467,0.611 0,0.2519 -0.144,0.3589 -0.359,0.3589 -0.359,0 -3.591,-2.4418 -5.709,-7.0031 -1.833,-3.9519 -2.262,-7.9367 -2.262,-10.9547 0,-2.8019 0.394,-7.1472 2.37,-11.2051 2.155,-4.417141 5.242,-6.751911 5.602,-6.751911 0.216,0 0.359,0.10782 0.359,0.35899"
       inkscape:connector-curvature="0" /><path
       inkscape:connector-curvature="0"
       d="m 121.03602,139.35274 39.78,0"
       style="fill:none;stroke:#000000;stroke-width:1.43280005;stroke-linecap:butt;stroke-linejoin:miter;stroke-miterlimit:10;stroke-opacity:1;stroke-dasharray:none"
       id="path5149" /><path
       inkscape:connector-curvature="0"
       d="m 121.75202,92.207809 0,46.426131"
       style="fill:none;stroke:#000000;stroke-width:1.43280005;stroke-linecap:butt;stroke-linejoin:miter;stroke-miterlimit:10;stroke-opacity:1;stroke-dasharray:none"
       id="path5153" /><path
       id="path5155"
       style="fill:#000000;fill-opacity:1;fill-rule:nonzero;stroke:none"
       d="m 141.85902,127.46994 c 0,0.0359 0,0.3949 -0.466,0.3949 -0.827,0 -3.448,-0.28709 -4.383,-0.359 -0.286,-0.0359 -0.681,-0.0719 -0.681,-0.7191 0,-0.4309 0.323,-0.4309 0.861,-0.4309 1.725,0 1.797,-0.2519 1.797,-0.609 0,-0.2519 -0.323,-1.473 -0.503,-2.2281 l -2.945,-11.7078 c -0.431,-1.7949 -0.575,-2.3699 -0.575,-3.627 0,-3.4121 1.905,-5.639 4.561,-5.639 4.239,0 8.656,5.3519 8.656,10.523 0,3.2668 -1.903,5.7449 -4.777,5.7449 -1.653,0 -3.125,-1.041 -4.202,-2.155 l 2.656,10.8109 10e-4,0.001 z m -3.375,-13.577 c 0.216,0.791 0.216,0.8629 0.539,1.2578 1.759,2.334 3.375,2.8731 4.309,2.8731 1.292,0 2.263,-1.0781 2.263,-3.377 0,-2.1191 -1.186,-6.248 -1.831,-7.614 -1.186,-2.4059 -2.837,-3.6981 -4.239,-3.6981 -1.22,0 -2.406,0.9692 -2.406,3.627 0,0.6832 0,1.366 0.575,3.6281 l 0.791,3.3031"
       inkscape:connector-curvature="0" /><path
       inkscape:connector-curvature="0"
       d="m 160.09902,92.207809 0,46.426131"
       style="fill:none;stroke:#000000;stroke-width:1.43280005;stroke-linecap:butt;stroke-linejoin:miter;stroke-miterlimit:10;stroke-opacity:1;stroke-dasharray:none"
       id="path5159" /><path
       inkscape:connector-curvature="0"
       d="m 121.03602,91.491009 39.78,0"
       style="fill:none;stroke:#000000;stroke-width:1.43280005;stroke-linecap:butt;stroke-linejoin:miter;stroke-miterlimit:10;stroke-opacity:1;stroke-dasharray:none"
       id="path5163" /><path
       id="path5165"
       style="fill:#000000;fill-opacity:1;fill-rule:nonzero;stroke:none"
       d="m 183.46502,111.20074 10.02,0 c 0.503,0 1.184,0 1.184,0.7172 0,0.7188 -0.681,0.7188 -1.184,0.7188 l -10.02,0 0,10.0562 c 0,0.5028 0,1.184 -0.719,1.184 -0.719,0 -0.719,-0.6812 -0.719,-1.184 l 0,-10.0562 -10.055,0 c -0.503,0 -1.186,0 -1.186,-0.7188 0,-0.7172 0.683,-0.7172 1.186,-0.7172 l 10.055,0 0,-10.0558 c 0,-0.5031 0,-1.186001 0.719,-1.186001 0.719,0 0.719,0.682901 0.719,1.186001 l 0,10.0558"
       inkscape:connector-curvature="0" /><path
       inkscape:connector-curvature="0"
       d="m 204.64902,129.88864 39.91,0"
       style="fill:none;stroke:#000000;stroke-width:1.43280005;stroke-linecap:butt;stroke-linejoin:miter;stroke-miterlimit:10;stroke-opacity:1;stroke-dasharray:none"
       id="path5169" /><path
       inkscape:connector-curvature="0"
       d="m 205.36902,92.207809 0,36.960941"
       style="fill:none;stroke:#000000;stroke-width:1.43280005;stroke-linecap:butt;stroke-linejoin:miter;stroke-miterlimit:10;stroke-opacity:1;stroke-dasharray:none"
       id="path5173" /><path
       id="path5175"
       style="fill:#000000;fill-opacity:1;fill-rule:nonzero;stroke:none"
       d="m 231.09802,116.58674 c -0.575,0 -1.077,0 -1.58,-0.502 -0.575,-0.539 -0.647,-1.15 -0.647,-1.4019 0,-0.8621 0.647,-1.2559 1.328,-1.2559 1.042,0 2.013,0.8609 2.013,2.2981 0,1.7589 -1.689,3.0878 -4.239,3.0878 -4.848,0 -9.625,-5.1339 -9.625,-10.198 0,-3.2328 2.084,-6.0699 5.819,-6.0699 5.136,0 8.153,3.8078 8.153,4.2379 0,0.216 -0.216,0.4672 -0.431,0.4672 -0.18,0 -0.252,-0.0723 -0.467,-0.359 -2.837,-3.5551 -6.752,-3.5551 -7.183,-3.5551 -2.262,0 -3.233,1.759 -3.233,3.9141 0,1.4726 0.719,4.9558 1.939,7.1828 1.114,2.0468 3.089,3.5922 5.064,3.5922 1.222,0 2.586,-0.4672 3.089,-1.4372"
       inkscape:connector-curvature="0" /><path
       inkscape:connector-curvature="0"
       d="m 243.84202,92.207809 0,36.960941"
       style="fill:none;stroke:#000000;stroke-width:1.43280005;stroke-linecap:butt;stroke-linejoin:miter;stroke-miterlimit:10;stroke-opacity:1;stroke-dasharray:none"
       id="path5179" /><path
       inkscape:connector-curvature="0"
       d="m 204.64902,91.491009 39.91,0"
       style="fill:none;stroke:#000000;stroke-width:1.43280005;stroke-linecap:butt;stroke-linejoin:miter;stroke-miterlimit:10;stroke-opacity:1;stroke-dasharray:none"
       id="path5183" /><path
       id="path5185"
       style="fill:#000000;fill-opacity:1;fill-rule:nonzero;stroke:none"
       d="m 254.95602,111.91794 c 0,2.802 -0.395,7.1469 -2.37,11.2059 -2.155,4.4172 -5.244,6.7519 -5.603,6.7519 -0.216,0 -0.359,-0.1437 -0.359,-0.3589 0,-0.1079 0,-0.1801 0.683,-0.827 3.519,-3.5551 5.567,-9.266 5.567,-16.7719 0,-6.141 -1.33,-12.462101 -5.783,-16.987081 -0.467,-0.43008 -0.467,-0.50196 -0.467,-0.60899 0,-0.21601 0.144,-0.35898 0.359,-0.35898 0.359,0 3.592,2.44179 5.711,7.003151 1.831,3.95 2.263,7.9379 2.263,10.9527"
       inkscape:connector-curvature="0" /><path
       id="path5187"
       style="fill:#000000;fill-opacity:1;fill-rule:nonzero;stroke:none"
       d="m 281.16502,111.20074 10.02,0 c 0.503,0 1.184,0 1.184,0.7172 0,0.7188 -0.681,0.7188 -1.184,0.7188 l -10.02,0 0,10.0562 c 0,0.5028 0,1.184 -0.719,1.184 -0.719,0 -0.719,-0.6812 -0.719,-1.184 l 0,-10.0562 -10.055,0 c -0.503,0 -1.186,0 -1.186,-0.7188 0,-0.7172 0.683,-0.7172 1.186,-0.7172 l 10.055,0 0,-10.0558 c 0,-0.5031 0,-1.186001 0.719,-1.186001 0.719,0 0.719,0.682901 0.719,1.186001 l 0,10.0558"
       inkscape:connector-curvature="0" /><path
       inkscape:connector-curvature="0"
       d="m 302.34202,129.88864 39.91,0"
       style="fill:none;stroke:#000000;stroke-width:1.43280005;stroke-linecap:butt;stroke-linejoin:miter;stroke-miterlimit:10;stroke-opacity:1;stroke-dasharray:none"
       id="path5191" /><path
       inkscape:connector-curvature="0"
       d="m 303.05902,92.207809 0,36.960941"
       style="fill:none;stroke:#000000;stroke-width:1.43280005;stroke-linecap:butt;stroke-linejoin:miter;stroke-miterlimit:10;stroke-opacity:1;stroke-dasharray:none"
       id="path5195" /><path
       id="path5197"
       style="fill:#000000;fill-opacity:1;fill-rule:nonzero;stroke:none"
       d="m 328.79802,116.58674 c -0.575,0 -1.077,0 -1.58,-0.502 -0.575,-0.539 -0.647,-1.15 -0.647,-1.4019 0,-0.8621 0.647,-1.2559 1.328,-1.2559 1.042,0 2.013,0.8609 2.013,2.2981 0,1.7589 -1.689,3.0878 -4.239,3.0878 -4.848,0 -9.625,-5.1339 -9.625,-10.198 0,-3.2328 2.084,-6.0699 5.819,-6.0699 5.136,0 8.153,3.8078 8.153,4.2379 0,0.216 -0.216,0.4672 -0.431,0.4672 -0.18,0 -0.252,-0.0723 -0.467,-0.359 -2.837,-3.5551 -6.752,-3.5551 -7.183,-3.5551 -2.262,0 -3.233,1.759 -3.233,3.9141 0,1.4726 0.719,4.9558 1.939,7.1828 1.114,2.0468 3.089,3.5922 5.064,3.5922 1.222,0 2.586,-0.4672 3.089,-1.4372"
       inkscape:connector-curvature="0" /><path
       inkscape:connector-curvature="0"
       d="m 341.53602,92.207809 0,36.960941"
       style="fill:none;stroke:#000000;stroke-width:1.43280005;stroke-linecap:butt;stroke-linejoin:miter;stroke-miterlimit:10;stroke-opacity:1;stroke-dasharray:none"
       id="path5201" /><path
       inkscape:connector-curvature="0"
       d="m 302.34202,91.491009 39.91,0"
       style="fill:none;stroke:#000000;stroke-width:1.43280005;stroke-linecap:butt;stroke-linejoin:miter;stroke-miterlimit:10;stroke-opacity:1;stroke-dasharray:none"
       id="path5205" /><path
       id="path5207"
       style="fill:#225f9e;fill-opacity:1;fill-rule:nonzero;stroke:none"
       d="m 357.07102,111.91794 c 0,1.0418 -0.862,1.9028 -1.903,1.9028 -1.042,0 -1.903,-0.861 -1.903,-1.9028 0,-1.041 0.861,-1.9031 1.903,-1.9031 1.041,0 1.903,0.8629 1.903,1.9031"
       inkscape:connector-curvature="0" /><path
       id="path5209"
       style="fill:#000000;fill-opacity:1;fill-rule:nonzero;stroke:none"
       d="m 380.06402,94.320699 c 0,0.1082 0,0.18008 -0.611,0.78906 -4.489,4.52498 -5.637,11.314081 -5.637,16.808181 0,6.25 1.364,12.4981 5.781,16.9879 0.467,0.4309 0.467,0.5031 0.467,0.611 0,0.2519 -0.144,0.3589 -0.359,0.3589 -0.359,0 -3.591,-2.4418 -5.709,-7.0031 -1.833,-3.9519 -2.262,-7.9367 -2.262,-10.9547 0,-2.8019 0.394,-7.1472 2.37,-11.2051 2.155,-4.417141 5.242,-6.751911 5.602,-6.751911 0.216,0 0.359,0.10782 0.359,0.35899"
       inkscape:connector-curvature="0" /><path
       inkscape:connector-curvature="0"
       d="m 382.10402,129.88864 43.348,0"
       style="fill:none;stroke:#000000;stroke-width:1.43280005;stroke-linecap:butt;stroke-linejoin:miter;stroke-miterlimit:10;stroke-opacity:1;stroke-dasharray:none"
       id="path5213" /><path
       inkscape:connector-curvature="0"
       d="m 382.82102,92.207809 0,36.960941"
       style="fill:none;stroke:#000000;stroke-width:1.43280005;stroke-linecap:butt;stroke-linejoin:miter;stroke-miterlimit:10;stroke-opacity:1;stroke-dasharray:none"
       id="path5217" /><path
       id="path5219"
       style="fill:#000000;fill-opacity:1;fill-rule:nonzero;stroke:none"
       d="m 407.67102,116.51484 c -0.645,1.3301 -1.687,2.298 -3.303,2.298 -4.202,0 -8.656,-5.2781 -8.656,-10.5218 0,-3.3774 1.977,-5.7473 4.777,-5.7473 0.719,0 2.514,0.1441 4.669,2.6941 0.288,-1.5082 1.545,-2.6941 3.269,-2.6941 1.258,0 2.083,0.827 2.658,1.975 0.611,1.2941 1.078,3.484 1.078,3.5563 0,0.3589 -0.323,0.3589 -0.431,0.3589 -0.359,0 -0.395,-0.1441 -0.503,-0.6472 -0.611,-2.334 -1.258,-4.4528 -2.73,-4.4528 -0.97,0 -1.077,0.9329 -1.077,1.652 0,0.791 0.072,1.0777 0.466,2.6578 0.395,1.5082 0.467,1.8672 0.791,3.2332 l 1.292,5.0277 c 0.252,1.0051 0.252,1.0774 0.252,1.2204 0,0.6109 -0.43,0.9699 -1.041,0.9699 -0.862,0 -1.402,-0.791 -1.509,-1.5813 l -0.002,0.001 z m -2.334,-9.302 c -0.18,-0.6468 -0.18,-0.7171 -0.717,-1.3281 -1.581,-1.975 -3.053,-2.55 -4.059,-2.55 -1.795,0 -2.298,1.975 -2.298,3.375 0,1.7973 1.15,6.2141 1.977,7.866 1.113,2.1192 2.728,3.4481 4.166,3.4481 2.334,0 2.838,-2.9449 2.838,-3.161 0,-0.216 -0.072,-0.4308 -0.108,-0.6109 l -1.797,-7.0391"
       inkscape:connector-curvature="0" /><path
       inkscape:connector-curvature="0"
       d="m 424.73102,92.207809 0,36.960941"
       style="fill:none;stroke:#000000;stroke-width:1.43280005;stroke-linecap:butt;stroke-linejoin:miter;stroke-miterlimit:10;stroke-opacity:1;stroke-dasharray:none"
       id="path5223" /><path
       inkscape:connector-curvature="0"
       d="m 382.10402,91.491009 43.348,0"
       style="fill:none;stroke:#000000;stroke-width:1.43280005;stroke-linecap:butt;stroke-linejoin:miter;stroke-miterlimit:10;stroke-opacity:1;stroke-dasharray:none"
       id="path5227" /><path
       id="path5229"
       style="fill:#000000;fill-opacity:1;fill-rule:nonzero;stroke:none"
       d="m 448.06502,111.20074 10.02,0 c 0.503,0 1.184,0 1.184,0.7172 0,0.7188 -0.681,0.7188 -1.184,0.7188 l -10.02,0 0,10.0562 c 0,0.5028 0,1.184 -0.719,1.184 -0.719,0 -0.719,-0.6812 -0.719,-1.184 l 0,-10.0562 -10.055,0 c -0.503,0 -1.186,0 -1.186,-0.7188 0,-0.7172 0.683,-0.7172 1.186,-0.7172 l 10.055,0 0,-10.0558 c 0,-0.5031 0,-1.186001 0.719,-1.186001 0.719,0 0.719,0.682901 0.719,1.186001 l 0,10.0558"
       inkscape:connector-curvature="0" /><path
       inkscape:connector-curvature="0"
       d="m 469.28502,146.52384 55.303,0"
       style="fill:none;stroke:#000000;stroke-width:1.43280005;stroke-linecap:butt;stroke-linejoin:miter;stroke-miterlimit:10;stroke-opacity:1;stroke-dasharray:none"
       id="path5233" /><path
       inkscape:connector-curvature="0"
       d="m 470.00202,92.207809 0,53.600031"
       style="fill:none;stroke:#000000;stroke-width:1.43280005;stroke-linecap:butt;stroke-linejoin:miter;stroke-miterlimit:10;stroke-opacity:1;stroke-dasharray:none"
       id="path5237" /><path
       inkscape:connector-curvature="0"
       d="m 481.47802,132.89495 15.394,0"
       style="fill:none;stroke:#000000;stroke-width:1.43280005;stroke-linecap:butt;stroke-linejoin:miter;stroke-miterlimit:10;stroke-opacity:1;stroke-dasharray:none"
       id="path5241" /><path
       id="path5243"
       style="fill:#000000;fill-opacity:1;fill-rule:nonzero;stroke:none"
       d="m 490.05902,127.46994 c 0,0.0359 0,0.3949 -0.466,0.3949 -0.827,0 -3.448,-0.28709 -4.383,-0.359 -0.286,-0.0359 -0.681,-0.0719 -0.681,-0.7191 0,-0.4309 0.323,-0.4309 0.861,-0.4309 1.725,0 1.797,-0.2519 1.797,-0.609 0,-0.2519 -0.323,-1.473 -0.503,-2.2281 l -2.945,-11.7078 c -0.431,-1.7949 -0.575,-2.3699 -0.575,-3.627 0,-3.4121 1.905,-5.639 4.561,-5.639 4.239,0 8.656,5.3519 8.656,10.523 0,3.2668 -1.903,5.7449 -4.777,5.7449 -1.653,0 -3.125,-1.041 -4.202,-2.155 l 2.656,10.8109 10e-4,0.001 z m -3.375,-13.577 c 0.216,0.791 0.216,0.8629 0.539,1.2578 1.759,2.334 3.375,2.8731 4.309,2.8731 1.292,0 2.263,-1.0781 2.263,-3.377 0,-2.1191 -1.186,-6.248 -1.831,-7.614 -1.186,-2.4059 -2.837,-3.6981 -4.239,-3.6981 -1.22,0 -2.406,0.9692 -2.406,3.627 0,0.6832 0,1.366 0.575,3.6281 l 0.791,3.3031"
       inkscape:connector-curvature="0" /><path
       id="path5245"
       style="fill:#000000;fill-opacity:1;fill-rule:nonzero;stroke:none"
       d="m 511.09802,116.58674 c -0.575,0 -1.077,0 -1.58,-0.502 -0.575,-0.539 -0.647,-1.15 -0.647,-1.4019 0,-0.8621 0.647,-1.2559 1.328,-1.2559 1.042,0 2.013,0.8609 2.013,2.2981 0,1.7589 -1.689,3.0878 -4.239,3.0878 -4.848,0 -9.625,-5.1339 -9.625,-10.198 0,-3.2328 2.084,-6.0699 5.819,-6.0699 5.136,0 8.153,3.8078 8.153,4.2379 0,0.216 -0.216,0.4672 -0.431,0.4672 -0.18,0 -0.252,-0.0723 -0.467,-0.359 -2.837,-3.5551 -6.752,-3.5551 -7.183,-3.5551 -2.262,0 -3.2329,1.759 -3.2329,3.9141 0,1.4726 0.7189,4.9558 1.9389,7.1828 1.114,2.0468 3.089,3.5922 5.064,3.5922 1.222,0 2.586,-0.4672 3.089,-1.4372"
       inkscape:connector-curvature="0" /><path
       inkscape:connector-curvature="0"
       d="m 523.86902,92.207809 0,53.600031"
       style="fill:none;stroke:#000000;stroke-width:1.43280005;stroke-linecap:butt;stroke-linejoin:miter;stroke-miterlimit:10;stroke-opacity:1;stroke-dasharray:none"
       id="path5249" /><path
       inkscape:connector-curvature="0"
       d="m 469.28502,91.491009 55.303,0"
       style="fill:none;stroke:#000000;stroke-width:1.43280005;stroke-linecap:butt;stroke-linejoin:miter;stroke-miterlimit:10;stroke-opacity:1;stroke-dasharray:none"
       id="path5253" /><path
       id="path5255"
       style="fill:#000000;fill-opacity:1;fill-rule:nonzero;stroke:none"
       d="m 534.95602,111.91794 c 0,2.802 -0.395,7.1469 -2.37,11.2059 -2.155,4.4172 -5.244,6.7519 -5.603,6.7519 -0.216,0 -0.359,-0.1437 -0.359,-0.3589 0,-0.1079 0,-0.1801 0.683,-0.827 3.519,-3.5551 5.567,-9.266 5.567,-16.7719 0,-6.141 -1.33,-12.462101 -5.783,-16.987081 -0.467,-0.43008 -0.467,-0.50196 -0.467,-0.60899 0,-0.21601 0.144,-0.35898 0.359,-0.35898 0.359,0 3.592,2.44179 5.711,7.003151 1.831,3.95 2.263,7.9379 2.263,10.9527"
       inkscape:connector-curvature="0" /></g><g
     inkscape:groupmode="layer"
     id="layer2"
     inkscape:label="Tex"
     style="display:inline"><text
       xml:space="preserve"
       style="font-size:12px;font-style:normal;font-variant:normal;font-weight:normal;font-stretch:normal;text-align:start;line-height:125%;letter-spacing:0px;word-spacing:0px;writing-mode:lr-tb;text-anchor:start;fill:#000000;fill-opacity:1;stroke:none;font-family:Sans;-inkscape-font-specification:Sans"
       x="4.0205212"
       y="44.896069"
       id="text4668"
       sodipodi:linespacing="125%"><tspan
         sodipodi:role="line"
         id="tspan4670"
         x="4.0205212"
         y="44.896069">f = \fbox{$a$} \cdot (\fbox{$b$} + \fbox{$c$}) + \fbox{$c$} \cdot (\fbox{$a$} + \fbox{$\overline{b}c$})</tspan></text>
</g></svg>