<?xml version="1.0" encoding="UTF-8" standalone="no"?>
<!-- Created with Inkscape (http://www.inkscape.org/) -->

<svg
   xmlns:osb="http://www.openswatchbook.org/uri/2009/osb"
   xmlns:dc="http://purl.org/dc/elements/1.1/"
   xmlns:cc="http://creativecommons.org/ns#"
   xmlns:rdf="http://www.w3.org/1999/02/22-rdf-syntax-ns#"
   xmlns:svg="http://www.w3.org/2000/svg"
   xmlns="http://www.w3.org/2000/svg"
   xmlns:sodipodi="http://sodipodi.sourceforge.net/DTD/sodipodi-0.dtd"
   xmlns:inkscape="http://www.inkscape.org/namespaces/inkscape"
   width="210mm"
   height="297mm"
   id="svg2"
   version="1.1"
   inkscape:version="0.48.2 r9819"
   sodipodi:docname="KV2diagramm_belegt.svg">
  <defs
     id="defs4">
    <marker
       inkscape:stockid="Arrow1Sstart"
       orient="auto"
       refY="0.0"
       refX="0.0"
       id="Arrow1Sstart"
       style="overflow:visible">
      <path
         id="path4199"
         d="M 0.0,0.0 L 5.0,-5.0 L -12.5,0.0 L 5.0,5.0 L 0.0,0.0 z "
         style="fill-rule:evenodd;stroke:#000000;stroke-width:1.0pt;marker-start:none"
         transform="scale(0.2) translate(6,0)" />
    </marker>
    <marker
       inkscape:stockid="Arrow1Mend"
       orient="auto"
       refY="0.0"
       refX="0.0"
       id="Arrow1Mend"
       style="overflow:visible;">
      <path
         id="path4196"
         d="M 0.0,0.0 L 5.0,-5.0 L -12.5,0.0 L 5.0,5.0 L 0.0,0.0 z "
         style="fill-rule:evenodd;stroke:#000000;stroke-width:1.0pt;marker-start:none;"
         transform="scale(0.4) rotate(180) translate(10,0)" />
    </marker>
    <marker
       inkscape:stockid="Arrow1Lstart"
       orient="auto"
       refY="0.0"
       refX="0.0"
       id="Arrow1Lstart"
       style="overflow:visible">
      <path
         id="path4187"
         d="M 0.0,0.0 L 5.0,-5.0 L -12.5,0.0 L 5.0,5.0 L 0.0,0.0 z "
         style="fill-rule:evenodd;stroke:#000000;stroke-width:1.0pt;marker-start:none"
         transform="scale(0.8) translate(12.5,0)" />
    </marker>
    <linearGradient
       id="linearGradient4160"
       osb:paint="solid">
      <stop
         style="stop-color:#f5ff00;stop-opacity:0.53583616;"
         offset="0"
         id="stop4162" />
    </linearGradient>
    <clipPath
       id="clipPath3900"
       clipPathUnits="userSpaceOnUse">
      <path
         id="path3902"
         d="M 0,0 22,0 22,25 0,25 0,0 z" />
    </clipPath>
    <clipPath
       id="clipPath3894"
       clipPathUnits="userSpaceOnUse">
      <path
         id="path3896"
         d="M 0.9960939,1 20.9961,1 l 0,23 -20.0000061,0 0,-23 z" />
    </clipPath>
    <clipPath
       id="clipPath4019"
       clipPathUnits="userSpaceOnUse">
      <path
         id="path4021"
         d="M 0,0 85,0 85,145 0,145 0,0 z" />
    </clipPath>
    <clipPath
       id="clipPath4013"
       clipPathUnits="userSpaceOnUse">
      <path
         id="path4015"
         d="m 4.98008,5 75.00002,0 0,135 -75.00002,0 0,-135 z" />
    </clipPath>
    <clipPath
       id="clipPath4076"
       clipPathUnits="userSpaceOnUse">
      <path
         id="path4078"
         d="m 0,0 1880,0 0,145 L 0,145 0,0 z" />
    </clipPath>
    <clipPath
       id="clipPath4070"
       clipPathUnits="userSpaceOnUse">
      <path
         id="path4072"
         d="m 4.979948,4.999966 1870.001052,0 0,135.000734 -1870.001052,0 0,-135.000734 z" />
    </clipPath>
  </defs>
  <sodipodi:namedview
     id="base"
     pagecolor="#ffffff"
     bordercolor="#666666"
     borderopacity="1.0"
     inkscape:pageopacity="0.0"
     inkscape:pageshadow="2"
     inkscape:zoom="1"
     inkscape:cx="451.28473"
     inkscape:cy="947.73916"
     inkscape:document-units="px"
     inkscape:current-layer="layer2"
     showgrid="false"
     showguides="true"
     inkscape:guide-bbox="true"
     inkscape:object-paths="false"
     inkscape:snap-grids="true"
     inkscape:window-width="1920"
     inkscape:window-height="1178"
     inkscape:window-x="0"
     inkscape:window-y="0"
     inkscape:window-maximized="1">
    <inkscape:grid
       type="xygrid"
       id="grid3806" />
  </sodipodi:namedview>
  <metadata
     id="metadata7">
    <rdf:RDF>
      <cc:Work
         rdf:about="">
        <dc:format>image/svg+xml</dc:format>
        <dc:type
           rdf:resource="http://purl.org/dc/dcmitype/StillImage" />
        <dc:title />
      </cc:Work>
    </rdf:RDF>
  </metadata>
  <g
     inkscape:label="a"
     inkscape:groupmode="layer"
     id="layer1"
     style="display:inline" />
  <g
     inkscape:groupmode="layer"
     id="layer2"
     inkscape:label="ab"
     style="display:inline">
    <rect
       y="187.25446"
       x="49.154079"
       height="171.42105"
       width="170.97343"
       id="rect3966"
       style="fill:none;stroke:#000000;stroke-width:2.99999976;stroke-linecap:round;stroke-linejoin:round;stroke-miterlimit:4;stroke-opacity:1;stroke-dasharray:none" />
    <path
       inkscape:connector-curvature="0"
       id="path3968"
       d="m 134.64076,187.26272 0,171.20085"
       style="fill:none;stroke:#000000;stroke-width:3;stroke-linecap:butt;stroke-linejoin:miter;stroke-miterlimit:4;stroke-opacity:1;stroke-dasharray:none" />
    <path
       style="fill:none;stroke:#000000;stroke-width:3;stroke-linecap:round;stroke-linejoin:round;stroke-miterlimit:4;stroke-opacity:1;stroke-dasharray:none"
       d="m 134.67372,180.8339 85.45381,0"
       id="path3970"
       inkscape:connector-curvature="0" />
    <path
       style="fill:none;stroke:#000000;stroke-width:3;stroke-linecap:round;stroke-linejoin:miter;stroke-miterlimit:4;stroke-opacity:1;stroke-dasharray:none"
       d="m 49.655565,272.96498 169.465765,0"
       id="path3974"
       inkscape:connector-curvature="0" />
    <path
       id="path4126"
       style="fill:#000000;fill-opacity:1;fill-rule:nonzero;stroke:none"
       d="m 182.48293,156.7575 c -0.87968,-1.81294 -2.29682,-3.13574 -4.49596,-3.13574 -5.71745,0 -11.77757,7.20286 -11.77757,14.35623 0,4.60608 2.68773,7.83981 6.49949,7.83981 0.97769,0 3.42071,-0.19594 6.35332,-3.67487 0.39083,2.05814 2.10112,3.67487 4.44733,3.67487 1.71013,0 2.83429,-1.12691 3.61641,-2.69463 0.83067,-1.76383 1.46594,-4.75291 1.46594,-4.85074 0,-0.49039 -0.43958,-0.49039 -0.58614,-0.49039 -0.48905,0 -0.53768,0.19595 -0.68449,0.88199 -0.83067,3.18513 -1.71008,6.07599 -3.71387,6.07599 -1.31964,0 -1.46607,-1.27383 -1.46607,-2.25406 0,-1.07804 0.0979,-1.46964 0.63541,-3.62585 0.53764,-2.0576 0.63523,-2.54798 1.07523,-4.40962 l 1.75922,-6.85959 c 0.34212,-1.37209 0.34212,-1.46992 0.34212,-1.66597 0,-0.83301 -0.58669,-1.32312 -1.4171,-1.32312 -1.17308,0 -1.90603,1.07804 -2.05276,2.15569 l -4.2e-4,0 z m -3.17645,12.69055 c -0.24457,0.88195 -0.24457,0.98005 -0.97769,1.81293 -2.15005,2.69461 -4.15362,3.47876 -5.52184,3.47876 -2.44376,0 -3.12774,-2.69464 -3.12774,-4.60593 0,-2.44988 1.56365,-8.47674 2.6876,-10.73024 1.5152,-2.89126 3.71439,-4.7042 5.66904,-4.7042 3.1764,0 3.86038,4.01787 3.86038,4.31231 0,0.29377 -0.0976,0.58755 -0.14642,0.83273 l -2.44302,9.60364"
       inkscape:connector-curvature="0" />
    <path
       inkscape:connector-curvature="0"
       id="path4128"
       d="m 42.17226,358.67551 0,-85.67754"
       style="fill:none;stroke:#000000;stroke-width:3;stroke-linecap:round;stroke-linejoin:round;stroke-miterlimit:4;stroke-opacity:1;stroke-dasharray:none" />
    <path
       inkscape:connector-curvature="0"
       d="m 26.918333,299.10431 c 0,-0.0494 0,-0.53907 -0.635444,-0.53907 -1.123903,0 -4.691176,0.39161 -5.961806,0.48968 -0.390956,0.0494 -0.928596,0.0981 -0.928596,0.9797 0,0.5882 0.439837,0.5882 1.17317,0.5882 2.345911,0 2.443413,0.34301 2.443413,0.83311 0,0.34303 -0.440224,2.00888 -0.684066,3.0378 l -4.007497,15.97323 c -0.586563,2.44961 -0.781869,3.23372 -0.781869,4.94855 0,4.65509 2.590139,7.69274 6.206379,7.69274 5.766455,0 11.777528,-7.30071 11.777528,-14.35639 0,-4.45872 -2.590139,-7.83965 -6.499445,-7.83965 -2.248107,0 -4.252071,1.42119 -5.71792,2.93979 l 3.616153,-14.74805 0,2.8e-4 z m -4.593673,18.52066 c 0.293109,-1.07804 0.293109,-1.17587 0.732946,-1.71455 2.394834,-3.18503 4.593716,-3.92004 5.864346,-3.92004 1.759691,0 3.078856,1.46991 3.078856,4.60608 0,2.89097 -1.612964,8.52555 -2.492336,10.38764 -1.612619,3.28297 -3.860726,5.04665 -5.766455,5.04665 -1.661543,0 -3.274206,-1.32311 -3.274206,-4.94871 0,-0.93096 0,-1.86163 0.781869,-4.94855 l 1.075324,-4.50824"
       style="fill:#000000;fill-opacity:1;fill-rule:nonzero;stroke:none"
       id="path4130" />
  </g>
  <g
     inkscape:groupmode="layer"
     id="layer3"
     inkscape:label="abc"
     style="display:inline" />
  <g
     inkscape:groupmode="layer"
     id="layer4"
     inkscape:label="abcd"
     style="display:inline" />
  <g
     inkscape:groupmode="layer"
     id="layer5"
     inkscape:label="Pfeile"
     style="display:inline" />
  <g
     inkscape:groupmode="layer"
     id="layer6"
     inkscape:label="Schrift"
     style="display:inline" />
  <g
     inkscape:groupmode="layer"
     id="layer8"
     inkscape:label="Schriftblah"
     style="display:inline">
    <text
       sodipodi:linespacing="125%"
       id="text5955"
       y="349.93219"
       x="59"
       style="font-size:30px;font-style:normal;font-variant:normal;font-weight:normal;font-stretch:normal;text-align:start;line-height:125%;letter-spacing:0px;word-spacing:0px;writing-mode:lr-tb;text-anchor:start;fill:#000000;fill-opacity:1;stroke:none;display:inline;font-family:STSong;-inkscape-font-specification:STSong"
       xml:space="preserve"><tspan
         y="349.93219"
         x="59"
         id="tspan5957"
         sodipodi:role="line">2</tspan></text>
    <text
       xml:space="preserve"
       style="font-size:30px;font-style:normal;font-variant:normal;font-weight:normal;font-stretch:normal;text-align:start;line-height:125%;letter-spacing:0px;word-spacing:0px;writing-mode:lr-tb;text-anchor:start;fill:#000000;fill-opacity:1;stroke:none;display:inline;font-family:STSong;-inkscape-font-specification:STSong"
       x="143.54115"
       y="349.93219"
       id="text5959"
       sodipodi:linespacing="125%"><tspan
         sodipodi:role="line"
         id="tspan5961"
         x="143.54115"
         y="349.93219">3</tspan></text>
    <text
       sodipodi:linespacing="125%"
       id="text6052"
       y="217.93219"
       x="143.54115"
       style="font-size:30px;font-style:normal;font-variant:normal;font-weight:normal;font-stretch:normal;text-align:start;line-height:125%;letter-spacing:0px;word-spacing:0px;writing-mode:lr-tb;text-anchor:start;fill:#000000;fill-opacity:1;stroke:none;display:inline;font-family:STSong;-inkscape-font-specification:STSong"
       xml:space="preserve"><tspan
         y="217.93219"
         x="143.54115"
         id="tspan6054"
         sodipodi:role="line">1</tspan></text>
    <text
       xml:space="preserve"
       style="font-size:30px;font-style:normal;font-variant:normal;font-weight:normal;font-stretch:normal;text-align:start;line-height:125%;letter-spacing:0px;word-spacing:0px;writing-mode:lr-tb;text-anchor:start;fill:#000000;fill-opacity:1;stroke:none;display:inline;font-family:STSong;-inkscape-font-specification:STSong"
       x="59"
       y="217.93219"
       id="text6056"
       sodipodi:linespacing="125%"><tspan
         sodipodi:role="line"
         id="tspan6058"
         x="59"
         y="217.93219">0</tspan></text>
  </g>
  <g
     inkscape:groupmode="layer"
     id="layer7"
     inkscape:label="Belegung"
     style="display:inline">
    <text
       sodipodi:linespacing="125%"
       id="text6127"
       y="247.93219"
       x="89"
       style="font-size:50px;font-style:normal;font-variant:normal;font-weight:bold;font-stretch:normal;text-align:center;line-height:125%;letter-spacing:0px;word-spacing:0px;writing-mode:lr-tb;text-anchor:middle;fill:#000000;fill-opacity:1;stroke:none;display:inline;font-family:Palatino;-inkscape-font-specification:Palatino Bold"
       xml:space="preserve"><tspan
         y="247.93219"
         x="89"
         id="tspan6129"
         sodipodi:role="line">0</tspan></text>
    <text
       xml:space="preserve"
       style="font-size:50px;font-style:normal;font-variant:normal;font-weight:bold;font-stretch:normal;text-align:center;line-height:125%;letter-spacing:0px;word-spacing:0px;writing-mode:lr-tb;text-anchor:middle;fill:#000000;fill-opacity:1;stroke:none;display:inline;font-family:Palatino;-inkscape-font-specification:Palatino Bold"
       x="177"
       y="247.93219"
       id="text6131"
       sodipodi:linespacing="125%"><tspan
         sodipodi:role="line"
         id="tspan6133"
         x="177"
         y="247.93219">1</tspan></text>
    <text
       xml:space="preserve"
       style="font-size:50px;font-style:normal;font-variant:normal;font-weight:bold;font-stretch:normal;text-align:center;line-height:125%;letter-spacing:0px;word-spacing:0px;writing-mode:lr-tb;text-anchor:middle;fill:#000000;fill-opacity:1;stroke:none;display:inline;font-family:Palatino;-inkscape-font-specification:Palatino Bold"
       x="89"
       y="333.93219"
       id="text6143"
       sodipodi:linespacing="125%"><tspan
         sodipodi:role="line"
         id="tspan6145"
         x="89"
         y="333.93219">0</tspan></text>
    <text
       sodipodi:linespacing="125%"
       id="text6147"
       y="333.93219"
       x="177"
       style="font-size:50px;font-style:normal;font-variant:normal;font-weight:bold;font-stretch:normal;text-align:center;line-height:125%;letter-spacing:0px;word-spacing:0px;writing-mode:lr-tb;text-anchor:middle;fill:#000000;fill-opacity:1;stroke:none;display:inline;font-family:Palatino;-inkscape-font-specification:Palatino Bold"
       xml:space="preserve"><tspan
         y="333.93219"
         x="177"
         id="tspan6149"
         sodipodi:role="line">1</tspan></text>
    <path
       sodipodi:type="arc"
       style="fill:none;stroke:#b5c7e8;stroke-width:4.31865644;stroke-linecap:round;stroke-linejoin:round;stroke-miterlimit:16.39999962;stroke-opacity:1;stroke-dasharray:none;stroke-dashoffset:0"
       id="path8087"
       sodipodi:cx="180.5"
       sodipodi:cy="271.36218"
       sodipodi:rx="23.5"
       sodipodi:ry="74"
       d="m 204,271.36218 a 23.5,74 0 1 1 -47,0 23.5,74 0 1 1 47,0 z"
       transform="matrix(1.3404255,0,0,1,-63.446808,0)" />
  </g>
</svg>
