<?xml version="1.0" encoding="UTF-8" standalone="no"?>
<!-- Created with Inkscape (http://www.inkscape.org/) -->

<svg
   xmlns:dc="http://purl.org/dc/elements/1.1/"
   xmlns:cc="http://creativecommons.org/ns#"
   xmlns:rdf="http://www.w3.org/1999/02/22-rdf-syntax-ns#"
   xmlns:svg="http://www.w3.org/2000/svg"
   xmlns="http://www.w3.org/2000/svg"
   xmlns:sodipodi="http://sodipodi.sourceforge.net/DTD/sodipodi-0.dtd"
   xmlns:inkscape="http://www.inkscape.org/namespaces/inkscape"
   width="210mm"
   height="297mm"
   id="svg2"
   version="1.1"
   inkscape:version="0.48.2 r9819"
   sodipodi:docname="KVdiagrammA.svg">
  <defs
     id="defs4">
    <clipPath
       id="clipPath3900"
       clipPathUnits="userSpaceOnUse">
      <path
         id="path3902"
         d="M 0,0 22,0 22,25 0,25 0,0 z" />
    </clipPath>
    <clipPath
       id="clipPath3894"
       clipPathUnits="userSpaceOnUse">
      <path
         id="path3896"
         d="M 0.9960939,1 20.9961,1 l 0,23 -20.0000061,0 0,-23 z" />
    </clipPath>
  </defs>
  <sodipodi:namedview
     id="base"
     pagecolor="#ffffff"
     bordercolor="#666666"
     borderopacity="1.0"
     inkscape:pageopacity="0.0"
     inkscape:pageshadow="2"
     inkscape:zoom="1.4142136"
     inkscape:cx="1021.2313"
     inkscape:cy="577.99959"
     inkscape:document-units="px"
     inkscape:current-layer="layer1"
     showgrid="false"
     showguides="true"
     inkscape:guide-bbox="true"
     inkscape:object-paths="false"
     inkscape:snap-grids="true"
     inkscape:window-width="1920"
     inkscape:window-height="1178"
     inkscape:window-x="0"
     inkscape:window-y="0"
     inkscape:window-maximized="1">
    <sodipodi:guide
       orientation="1,0"
       position="100,1072.3077"
       id="guide2987" />
    <sodipodi:guide
       orientation="0,1"
       position="239.23077,1085.3846"
       id="guide2989" />
    <sodipodi:guide
       orientation="0,1"
       position="283.07692,100"
       id="guide2991" />
    <sodipodi:guide
       orientation="1,0"
       position="300,556.15385"
       id="guide2993" />
    <sodipodi:guide
       orientation="0,1"
       position="381.53846,300.077"
       id="guide2995" />
    <sodipodi:guide
       orientation="1,0"
       position="200,515.38462"
       id="guide3802" />
    <sodipodi:guide
       orientation="1,0"
       position="400,515.38462"
       id="guide3804" />
    <inkscape:grid
       type="xygrid"
       id="grid3806" />
  </sodipodi:namedview>
  <metadata
     id="metadata7">
    <rdf:RDF>
      <cc:Work
         rdf:about="">
        <dc:format>image/svg+xml</dc:format>
        <dc:type
           rdf:resource="http://purl.org/dc/dcmitype/StillImage" />
        <dc:title></dc:title>
      </cc:Work>
    </rdf:RDF>
  </metadata>
  <g
     inkscape:label="Ebene 1"
     inkscape:groupmode="layer"
     id="layer1">
    <rect
       style="fill:#ff0000;stroke:none;stroke-width:0;stroke-linecap:round;stroke-linejoin:round;stroke-miterlimit:4;stroke-opacity:1;stroke-dasharray:none;fill-opacity:0.07508533;opacity:1"
       id="rect3851"
       width="197"
       height="196.99998"
       x="1093.7783"
       y="263.22092" />
    <rect
       style="fill:none;stroke:#000000;stroke-width:3;stroke-linecap:round;stroke-linejoin:round;stroke-miterlimit:4;stroke-opacity:1;stroke-dasharray:none"
       id="rect2985"
       width="399"
       height="399"
       x="100"
       y="553.36218" />
    <path
       style="fill:none;stroke:#000000;stroke-width:3;stroke-linecap:butt;stroke-linejoin:miter;stroke-opacity:1;stroke-miterlimit:4;stroke-dasharray:none"
       d="m 300,553.36224 0,399.00001"
       id="path2997"
       inkscape:connector-curvature="0" />
    <path
       inkscape:connector-curvature="0"
       id="path3010"
       d="m 100.5,752.86225 399,0"
       style="fill:none;stroke:#000000;stroke-width:3;stroke-linecap:butt;stroke-linejoin:miter;stroke-opacity:1;stroke-miterlimit:4;stroke-dasharray:none" />
    <rect
       style="fill:none;stroke:#000000;stroke-width:2.99999976;stroke-linecap:round;stroke-linejoin:round;stroke-miterlimit:4;stroke-opacity:1;stroke-dasharray:none"
       id="rect3808"
       width="397"
       height="196.99998"
       x="894.49011"
       y="263.22092" />
    <path
       style="fill:none;stroke:#000000;stroke-width:3;stroke-linecap:butt;stroke-linejoin:miter;stroke-miterlimit:4;stroke-opacity:1;stroke-dasharray:none"
       d="m 1092.99,263.24003 0,197.00028"
       id="path3812"
       inkscape:connector-curvature="0" />
    <path
       inkscape:connector-curvature="0"
       id="path3814"
       d="m 1093.0665,248.35132 198.4236,0"
       style="fill:none;stroke:#000000;stroke-width:3;stroke-linecap:round;stroke-linejoin:round;stroke-miterlimit:4;stroke-opacity:1;stroke-dasharray:none" />
    <path
       inkscape:connector-curvature="0"
       d="m 1200.9499,201.88589 c -1.498,-3.08944 -3.9186,-5.33759 -7.6712,-5.33759 -9.7609,0 -20.106,12.25949 -20.106,24.43915 0,7.84458 4.5918,13.34921 11.0954,13.34921 1.6703,0 5.8395,-0.33479 10.8451,-6.2577 0.6686,3.50313 3.5886,6.2577 7.5933,6.2577 2.9215,0 4.8378,-1.92076 6.1733,-4.58735 1.4189,-3.00591 2.5042,-8.09227 2.5042,-8.26013 0,-0.83381 -0.7503,-0.83381 -1.0017,-0.83381 -0.8338,0 -0.9174,0.3348 -1.1677,1.5034 -1.4191,5.42118 -2.9225,10.34242 -6.3414,10.34242 -2.2527,0 -2.5012,-2.16665 -2.5012,-3.837 0,-1.83731 0.1669,-2.50328 1.0824,-6.17334 0.9172,-3.50311 1.0842,-4.33692 1.8372,-7.50976 l 3.0004,-11.67789 c 0.5854,-2.33455 0.5854,-2.50248 0.5854,-2.83463 0,-1.41894 -0.9981,-2.2528 -2.418,-2.2528 -2.0017,0 -3.2564,1.83727 -3.5048,3.6729 l 0,-0.003 z m -5.4212,21.60572 c -0.4182,1.50251 -0.4182,1.66582 -1.6649,3.08486 -3.6727,4.58735 -7.0914,5.9229 -9.4277,5.9229 -4.1701,0 -5.3377,-4.58735 -5.3377,-7.83914 0,-4.17453 2.6711,-14.4335 4.5918,-18.27038 2.5849,-4.92228 6.3367,-8.00893 9.6765,-8.00893 5.4212,0 6.5916,6.84014 6.5916,7.34208 0,0.50171 -0.167,1.00062 -0.2503,1.41894 l -4.1747,16.34967"
       style="fill:#000000;fill-opacity:1;fill-rule:nonzero;stroke:none"
       id="path3941" />
  </g>
</svg>
